<svg xmlns="http://www.w3.org/2000/svg" xmlns:xlink="http://www.w3.org/1999/xlink" width="355mm" height="212mm" stroke-linejoin="round" stroke-width="28.222" version="1.1" viewBox="0 0 35500 21200" xml:space="preserve"><path fill="#FFF" stroke="none" d="M 17752,21157 L -13,21157 -13,-13 35517,-13 35517,21157 17752,21157 Z"/><path fill="none" stroke="#B3B3B3" stroke-linejoin="round" d="M 18860,18560 L 3351,18560 3351,3773 34369,3773 34369,18560 18860,18560 Z"/><path fill="none" stroke="#B3B3B3" stroke-linejoin="round" d="M 3351,3772 L 3351,18559"/><path fill="none" stroke="#B3B3B3" stroke-linejoin="round" d="M 5074,3772 L 5074,18559"/><path fill="none" stroke="#B3B3B3" stroke-linejoin="round" d="M 6797,3772 L 6797,18559"/><path fill="none" stroke="#B3B3B3" stroke-linejoin="round" d="M 8520,3772 L 8520,18559"/><path fill="none" stroke="#B3B3B3" stroke-linejoin="round" d="M 10244,3772 L 10244,18559"/><path fill="none" stroke="#B3B3B3" stroke-linejoin="round" d="M 11967,3772 L 11967,18559"/><path fill="none" stroke="#B3B3B3" stroke-linejoin="round" d="M 13690,3772 L 13690,18559"/><path fill="none" stroke="#B3B3B3" stroke-linejoin="round" d="M 15413,3772 L 15413,18559"/><path fill="none" stroke="#B3B3B3" stroke-linejoin="round" d="M 17137,3772 L 17137,18559"/><path fill="none" stroke="#B3B3B3" stroke-linejoin="round" d="M 18859,3772 L 18859,18559"/><path fill="none" stroke="#B3B3B3" stroke-linejoin="round" d="M 20582,3772 L 20582,18559"/><path fill="none" stroke="#B3B3B3" stroke-linejoin="round" d="M 22306,3772 L 22306,18559"/><path fill="none" stroke="#B3B3B3" stroke-linejoin="round" d="M 24029,3772 L 24029,18559"/><path fill="none" stroke="#B3B3B3" stroke-linejoin="round" d="M 25752,3772 L 25752,18559"/><path fill="none" stroke="#B3B3B3" stroke-linejoin="round" d="M 27475,3772 L 27475,18559"/><path fill="none" stroke="#B3B3B3" stroke-linejoin="round" d="M 29199,3772 L 29199,18559"/><path fill="none" stroke="#B3B3B3" stroke-linejoin="round" d="M 30922,3772 L 30922,18559"/><path fill="none" stroke="#B3B3B3" stroke-linejoin="round" d="M 32645,3772 L 32645,18559"/><path fill="none" stroke="#B3B3B3" stroke-linejoin="round" d="M 34369,3772 L 34369,18559"/><path fill="none" stroke="#DDD" stroke-linejoin="round" d="M 4212,3772 L 4212,18559"/><path fill="none" stroke="#DDD" stroke-linejoin="round" d="M 5935,3772 L 5935,18559"/><path fill="none" stroke="#DDD" stroke-linejoin="round" d="M 7659,3772 L 7659,18559"/><path fill="none" stroke="#DDD" stroke-linejoin="round" d="M 9382,3772 L 9382,18559"/><path fill="none" stroke="#DDD" stroke-linejoin="round" d="M 11105,3772 L 11105,18559"/><path fill="none" stroke="#DDD" stroke-linejoin="round" d="M 12829,3772 L 12829,18559"/><path fill="none" stroke="#DDD" stroke-linejoin="round" d="M 14552,3772 L 14552,18559"/><path fill="none" stroke="#DDD" stroke-linejoin="round" d="M 16275,3772 L 16275,18559"/><path fill="none" stroke="#DDD" stroke-linejoin="round" d="M 17997,3772 L 17997,18559"/><path fill="none" stroke="#DDD" stroke-linejoin="round" d="M 19721,3772 L 19721,18559"/><path fill="none" stroke="#DDD" stroke-linejoin="round" d="M 21444,3772 L 21444,18559"/><path fill="none" stroke="#DDD" stroke-linejoin="round" d="M 23167,3772 L 23167,18559"/><path fill="none" stroke="#DDD" stroke-linejoin="round" d="M 24890,3772 L 24890,18559"/><path fill="none" stroke="#DDD" stroke-linejoin="round" d="M 26614,3772 L 26614,18559"/><path fill="none" stroke="#DDD" stroke-linejoin="round" d="M 28337,3772 L 28337,18559"/><path fill="none" stroke="#DDD" stroke-linejoin="round" d="M 30060,3772 L 30060,18559"/><path fill="none" stroke="#DDD" stroke-linejoin="round" d="M 31784,3772 L 31784,18559"/><path fill="none" stroke="#DDD" stroke-linejoin="round" d="M 33507,3772 L 33507,18559"/><path fill="none" stroke="#B3B3B3" stroke-linejoin="round" d="M 34369,18559 L 3351,18559"/><path fill="none" stroke="#B3B3B3" stroke-linejoin="round" d="M 34369,17326 L 3351,17326"/><path fill="none" stroke="#B3B3B3" stroke-linejoin="round" d="M 34369,16094 L 3351,16094"/><path fill="none" stroke="#B3B3B3" stroke-linejoin="round" d="M 34369,14862 L 3351,14862"/><path fill="none" stroke="#B3B3B3" stroke-linejoin="round" d="M 34369,13629 L 3351,13629"/><path fill="none" stroke="#B3B3B3" stroke-linejoin="round" d="M 34369,12397 L 3351,12397"/><path fill="none" stroke="#B3B3B3" stroke-linejoin="round" d="M 34369,11165 L 3351,11165"/><path fill="none" stroke="#B3B3B3" stroke-linejoin="round" d="M 34369,9933 L 3351,9933"/><path fill="none" stroke="#B3B3B3" stroke-linejoin="round" d="M 34369,8701 L 3351,8701"/><path fill="none" stroke="#B3B3B3" stroke-linejoin="round" d="M 34369,7469 L 3351,7469"/><path fill="none" stroke="#B3B3B3" stroke-linejoin="round" d="M 34369,6236 L 3351,6236"/><path fill="none" stroke="#B3B3B3" stroke-linejoin="round" d="M 34369,5004 L 3351,5004"/><path fill="none" stroke="#B3B3B3" stroke-linejoin="round" d="M 34369,3772 L 3351,3772"/><path fill="none" stroke="#DDD" stroke-linejoin="round" d="M 34369,17942 L 3351,17942"/><path fill="none" stroke="#DDD" stroke-linejoin="round" d="M 34369,16710 L 3351,16710"/><path fill="none" stroke="#DDD" stroke-linejoin="round" d="M 34369,15478 L 3351,15478"/><path fill="none" stroke="#DDD" stroke-linejoin="round" d="M 34369,14245 L 3351,14245"/><path fill="none" stroke="#DDD" stroke-linejoin="round" d="M 34369,13013 L 3351,13013"/><path fill="none" stroke="#DDD" stroke-linejoin="round" d="M 34369,11781 L 3351,11781"/><path fill="none" stroke="#DDD" stroke-linejoin="round" d="M 34369,10549 L 3351,10549"/><path fill="none" stroke="#DDD" stroke-linejoin="round" d="M 34369,9317 L 3351,9317"/><path fill="none" stroke="#DDD" stroke-linejoin="round" d="M 34369,8085 L 3351,8085"/><path fill="none" stroke="#DDD" stroke-linejoin="round" d="M 34369,6852 L 3351,6852"/><path fill="none" stroke="#DDD" stroke-linejoin="round" d="M 34369,5620 L 3351,5620"/><path fill="none" stroke="#DDD" stroke-linejoin="round" d="M 34369,4388 L 3351,4388"/><path fill="none" stroke="#B3B3B3" stroke-linejoin="round" d="M 3351,18709 L 3351,18559"/><path fill="none" stroke="#B3B3B3" stroke-linejoin="round" d="M 3351,18709 L 3351,18559"/><path fill="none" stroke="#B3B3B3" stroke-linejoin="round" d="M 5074,18709 L 5074,18559"/><path fill="none" stroke="#B3B3B3" stroke-linejoin="round" d="M 5074,18709 L 5074,18559"/><path fill="none" stroke="#B3B3B3" stroke-linejoin="round" d="M 6797,18709 L 6797,18559"/><path fill="none" stroke="#B3B3B3" stroke-linejoin="round" d="M 6797,18709 L 6797,18559"/><path fill="none" stroke="#B3B3B3" stroke-linejoin="round" d="M 8520,18709 L 8520,18559"/><path fill="none" stroke="#B3B3B3" stroke-linejoin="round" d="M 8520,18709 L 8520,18559"/><path fill="none" stroke="#B3B3B3" stroke-linejoin="round" d="M 10244,18709 L 10244,18559"/><path fill="none" stroke="#B3B3B3" stroke-linejoin="round" d="M 10244,18709 L 10244,18559"/><path fill="none" stroke="#B3B3B3" stroke-linejoin="round" d="M 11967,18709 L 11967,18559"/><path fill="none" stroke="#B3B3B3" stroke-linejoin="round" d="M 11967,18709 L 11967,18559"/><path fill="none" stroke="#B3B3B3" stroke-linejoin="round" d="M 13690,18709 L 13690,18559"/><path fill="none" stroke="#B3B3B3" stroke-linejoin="round" d="M 13690,18709 L 13690,18559"/><path fill="none" stroke="#B3B3B3" stroke-linejoin="round" d="M 15413,18709 L 15413,18559"/><path fill="none" stroke="#B3B3B3" stroke-linejoin="round" d="M 15413,18709 L 15413,18559"/><path fill="none" stroke="#B3B3B3" stroke-linejoin="round" d="M 17137,18709 L 17137,18559"/><path fill="none" stroke="#B3B3B3" stroke-linejoin="round" d="M 17137,18709 L 17137,18559"/><path fill="none" stroke="#B3B3B3" stroke-linejoin="round" d="M 18859,18709 L 18859,18559"/><path fill="none" stroke="#B3B3B3" stroke-linejoin="round" d="M 18859,18709 L 18859,18559"/><path fill="none" stroke="#B3B3B3" stroke-linejoin="round" d="M 20582,18709 L 20582,18559"/><path fill="none" stroke="#B3B3B3" stroke-linejoin="round" d="M 20582,18709 L 20582,18559"/><path fill="none" stroke="#B3B3B3" stroke-linejoin="round" d="M 22306,18709 L 22306,18559"/><path fill="none" stroke="#B3B3B3" stroke-linejoin="round" d="M 22306,18709 L 22306,18559"/><path fill="none" stroke="#B3B3B3" stroke-linejoin="round" d="M 24029,18709 L 24029,18559"/><path fill="none" stroke="#B3B3B3" stroke-linejoin="round" d="M 24029,18709 L 24029,18559"/><path fill="none" stroke="#B3B3B3" stroke-linejoin="round" d="M 25752,18709 L 25752,18559"/><path fill="none" stroke="#B3B3B3" stroke-linejoin="round" d="M 25752,18709 L 25752,18559"/><path fill="none" stroke="#B3B3B3" stroke-linejoin="round" d="M 27475,18709 L 27475,18559"/><path fill="none" stroke="#B3B3B3" stroke-linejoin="round" d="M 27475,18709 L 27475,18559"/><path fill="none" stroke="#B3B3B3" stroke-linejoin="round" d="M 29199,18709 L 29199,18559"/><path fill="none" stroke="#B3B3B3" stroke-linejoin="round" d="M 29199,18709 L 29199,18559"/><path fill="none" stroke="#B3B3B3" stroke-linejoin="round" d="M 30922,18709 L 30922,18559"/><path fill="none" stroke="#B3B3B3" stroke-linejoin="round" d="M 30922,18709 L 30922,18559"/><path fill="none" stroke="#B3B3B3" stroke-linejoin="round" d="M 32645,18709 L 32645,18559"/><path fill="none" stroke="#B3B3B3" stroke-linejoin="round" d="M 32645,18709 L 32645,18559"/><path fill="none" stroke="#B3B3B3" stroke-linejoin="round" d="M 34369,18709 L 34369,18559"/><path fill="none" stroke="#B3B3B3" stroke-linejoin="round" d="M 34369,18709 L 34369,18559"/><path fill="none" stroke="#B3B3B3" stroke-linejoin="round" d="M 3351,18559 L 34369,18559"/><path fill="none" stroke="#B3B3B3" stroke-linejoin="round" d="M 3201,18559 L 3351,18559"/><path fill="none" stroke="#B3B3B3" stroke-linejoin="round" d="M 3201,18559 L 3351,18559"/><path fill="none" stroke="#B3B3B3" stroke-linejoin="round" d="M 3201,17326 L 3351,17326"/><path fill="none" stroke="#B3B3B3" stroke-linejoin="round" d="M 3201,17326 L 3351,17326"/><path fill="none" stroke="#B3B3B3" stroke-linejoin="round" d="M 3201,16094 L 3351,16094"/><path fill="none" stroke="#B3B3B3" stroke-linejoin="round" d="M 3201,16094 L 3351,16094"/><path fill="none" stroke="#B3B3B3" stroke-linejoin="round" d="M 3201,14862 L 3351,14862"/><path fill="none" stroke="#B3B3B3" stroke-linejoin="round" d="M 3201,14862 L 3351,14862"/><path fill="none" stroke="#B3B3B3" stroke-linejoin="round" d="M 3201,13629 L 3351,13629"/><path fill="none" stroke="#B3B3B3" stroke-linejoin="round" d="M 3201,13629 L 3351,13629"/><path fill="none" stroke="#B3B3B3" stroke-linejoin="round" d="M 3201,12397 L 3351,12397"/><path fill="none" stroke="#B3B3B3" stroke-linejoin="round" d="M 3201,12397 L 3351,12397"/><path fill="none" stroke="#B3B3B3" stroke-linejoin="round" d="M 3201,11165 L 3351,11165"/><path fill="none" stroke="#B3B3B3" stroke-linejoin="round" d="M 3201,11165 L 3351,11165"/><path fill="none" stroke="#B3B3B3" stroke-linejoin="round" d="M 3201,9933 L 3351,9933"/><path fill="none" stroke="#B3B3B3" stroke-linejoin="round" d="M 3201,9933 L 3351,9933"/><path fill="none" stroke="#B3B3B3" stroke-linejoin="round" d="M 3201,8701 L 3351,8701"/><path fill="none" stroke="#B3B3B3" stroke-linejoin="round" d="M 3201,8701 L 3351,8701"/><path fill="none" stroke="#B3B3B3" stroke-linejoin="round" d="M 3201,7469 L 3351,7469"/><path fill="none" stroke="#B3B3B3" stroke-linejoin="round" d="M 3201,7469 L 3351,7469"/><path fill="none" stroke="#B3B3B3" stroke-linejoin="round" d="M 3201,6236 L 3351,6236"/><path fill="none" stroke="#B3B3B3" stroke-linejoin="round" d="M 3201,6236 L 3351,6236"/><path fill="none" stroke="#B3B3B3" stroke-linejoin="round" d="M 3201,5004 L 3351,5004"/><path fill="none" stroke="#B3B3B3" stroke-linejoin="round" d="M 3201,5004 L 3351,5004"/><path fill="none" stroke="#B3B3B3" stroke-linejoin="round" d="M 3201,3772 L 3351,3772"/><path fill="none" stroke="#B3B3B3" stroke-linejoin="round" d="M 3201,3772 L 3351,3772"/><path fill="none" stroke="#B3B3B3" stroke-linejoin="round" d="M 3351,18559 L 3351,3772"/><path fill="none" stroke="#FF4000" stroke-linejoin="round" stroke-width="80" d="M 34369,17759 L 34368,17759 34354,17758 34340,17756 34326,17754 34312,17753 34298,17751 34284,17750 34269,17748 34255,17746 34255,17746 34241,17745 34227,17743 34213,17741 34199,17740 34185,17738 34170,17736 34156,17735 34142,17733 34137,17732 34128,17731 34114,17730 34100,17728 34086,17726 34071,17725 34057,17723 34043,17722 34029,17720 34018,17718 34015,17718 34001,17716 33987,17714 33972,17712 33958,17710 33944,17709 33930,17707 33916,17705 33905,17704 33902,17704 33888,17702 33873,17701 33859,17699 33845,17697 33831,17695 33817,17693 33803,17691 33793,17690 33789,17690 33774,17688 33760,17686 33746,17684 33732,17683 33718,17681 33704,17679 33690,17677 33686,17676 33675,17675 33661,17672 33647,17670 33633,17668 33619,17666 33605,17664 33590,17663 33586,17662 33576,17661 33562,17660 33548,17658 33534,17656 33520,17655 33506,17653 33491,17651 33477,17649 33475,17648 33463,17647 33449,17644 33435,17642 33421,17640 33407,17638 33392,17636 33383,17634 33378,17634 33364,17631 33350,17629 33336,17627 33322,17625 33308,17623 33293,17621 33290,17620 33279,17619 33265,17617 33251,17614 33237,17612 33223,17610 33209,17608 33196,17606 33194,17606 33180,17604 33166,17602 33152,17600 33138,17599 33124,17597 33110,17595 33095,17593 33092,17592 33081,17591 33067,17588 33053,17586 33039,17584 33025,17582 33011,17580 33000,17578 32996,17578 32982,17576 32968,17574 32954,17572 32940,17570 32926,17568 32912,17566 32897,17564 32896,17564 32883,17563 32869,17561 32855,17559 32841,17557 32827,17555 32812,17553 32798,17551 32795,17550 32784,17549 32770,17546 32756,17544 32742,17542 32728,17540 32714,17538 32701,17536 32699,17536 32685,17534 32671,17532 32657,17530 32643,17529 32629,17527 32614,17525 32600,17523 32592,17522 32586,17521 32572,17519 32558,17517 32544,17515 32530,17513 32515,17510 32501,17508 32501,17508 32487,17506 32473,17504 32459,17502 32445,17500 32431,17497 32416,17495 32409,17494 32402,17493 32388,17491 32374,17489 32360,17487 32346,17485 32332,17482 32319,17480 32318,17480 32303,17477 32289,17475 32275,17472 32261,17470 32247,17468 32237,17466 32233,17466 32218,17463 32204,17461 32190,17459 32176,17457 32162,17454 32148,17452 32148,17452 32134,17450 32119,17447 32105,17445 32091,17443 32077,17440 32066,17438 32063,17438 32049,17435 32035,17432 32020,17430 32006,17427 31992,17425 31984,17424 31978,17423 31964,17421 31950,17419 31936,17417 31921,17415 31907,17413 31893,17411 31891,17410 31879,17408 31865,17406 31851,17404 31837,17401 31822,17399 31808,17397 31804,17396 31794,17395 31780,17392 31766,17390 31752,17388 31738,17386 31723,17384 31712,17382 31709,17382 31695,17380 31681,17378 31667,17376 31653,17373 31639,17371 31624,17369 31622,17368 31610,17366 31596,17364 31582,17362 31568,17359 31554,17357 31540,17354 31538,17354 31525,17352 31511,17350 31497,17347 31483,17345 31469,17343 31455,17341 31445,17340 31441,17340 31426,17338 31412,17335 31398,17333 31384,17330 31370,17328 31361,17326 31356,17325 31341,17323 31327,17320 31313,17318 31299,17316 31285,17314 31276,17312 31271,17311 31257,17309 31242,17307 31228,17305 31214,17302 31200,17300 31192,17298 31186,17297 31172,17295 31158,17292 31144,17290 31129,17288 31115,17286 31104,17284 31101,17284 31087,17282 31073,17279 31059,17277 31045,17275 31030,17272 31018,17270 31016,17270 31002,17267 30988,17265 30974,17263 30960,17261 30945,17259 30931,17257 30925,17256 30917,17255 30903,17253 30889,17251 30875,17249 30861,17247 30846,17245 30832,17243 30828,17242 30818,17241 30804,17239 30790,17237 30776,17235 30762,17232 30747,17230 30733,17228 30732,17228 30719,17226 30705,17224 30691,17222 30677,17220 30663,17218 30648,17217 30634,17215 30631,17214 30620,17213 30606,17211 30592,17209 30578,17207 30564,17205 30549,17203 30535,17201 30528,17200 30521,17199 30507,17197 30493,17195 30479,17193 30465,17192 30450,17190 30436,17188 30422,17187 30417,17186 30408,17185 30394,17183 30380,17181 30366,17178 30351,17176 30337,17174 30326,17172 30323,17172 30309,17170 30295,17168 30281,17167 30267,17165 30252,17164 30238,17162 30224,17160 30210,17158 30208,17158 30196,17156 30182,17154 30168,17152 30153,17150 30139,17149 30125,17147 30111,17146 30098,17144 30097,17144 30083,17142 30068,17141 30054,17139 30040,17137 30026,17135 30012,17133 29998,17131 29988,17130 29984,17130 29969,17128 29955,17126 29941,17124 29927,17123 29913,17121 29899,17119 29885,17118 29871,17116 29870,17116 29856,17114 29842,17113 29828,17111 29814,17110 29800,17108 29786,17106 29771,17105 29757,17103 29749,17102 29743,17101 29729,17100 29715,17098 29701,17096 29687,17094 29672,17093 29658,17091 29644,17089 29636,17088 29630,17088 29616,17086 29602,17085 29588,17084 29573,17082 29559,17081 29545,17080 29531,17078 29517,17077 29503,17075 29492,17074 29489,17074 29474,17072 29460,17071 29446,17069 29432,17067 29418,17066 29404,17064 29390,17063 29375,17061 29365,17060 29361,17060 29347,17058 29333,17057 29319,17056 29305,17054 29290,17052 29276,17051 29262,17049 29248,17047 29243,17046 29234,17045 29220,17043 29206,17041 29191,17040 29177,17039 29163,17037 29149,17036 29135,17035 29121,17033 29111,17032 29107,17032 29092,17030 29078,17028 29064,17026 29050,17024 29036,17023 29022,17021 29008,17020 28993,17018 28992,17018 28979,17017 28965,17015 28951,17014 28937,17012 28923,17010 28909,17009 28894,17007 28880,17005 28870,17004 28866,17004 28852,17002 28838,17000 28824,16999 28810,16997 28795,16996 28781,16994 28767,16992 28753,16990 28753,16990 28739,16988 28725,16986 28711,16985 28696,16983 28682,16981 28668,16979 28654,16977 28648,16976 28640,16975 28626,16973 28612,16971 28597,16969 28583,16966 28569,16964 28556,16962 28555,16962 28541,16960 28527,16958 28513,16956 28498,16954 28484,16952 28470,16950 28456,16949 28452,16948 28442,16946 28428,16944 28414,16941 28399,16938 28385,16936 28376,16934 28371,16933 28357,16931 28343,16928 28329,16925 28315,16922 28302,16920 28300,16920 28286,16917 28272,16914 28258,16912 28244,16909 28230,16906 28230,16906 28216,16903 28201,16900 28187,16898 28173,16895 28160,16892 28159,16892 28145,16889 28131,16886 28116,16883 28102,16880 28093,16878 28088,16877 28074,16873 28060,16870 28046,16866 28036,16864 28032,16863 28018,16859 28003,16856 27989,16853 27977,16850 27975,16850 27961,16846 27947,16843 27933,16840 27919,16836 27918,16836 27904,16832 27890,16828 27876,16824 27868,16822 27862,16820 27848,16817 27834,16813 27819,16810 27813,16808 27805,16806 27791,16802 27777,16799 27763,16795 27758,16794 27749,16792 27735,16788 27721,16784 27706,16781 27704,16780 27692,16777 27678,16773 27664,16769 27652,16766 27650,16765 27636,16761 27622,16757 27607,16754 27602,16752 27593,16750 27579,16746 27565,16742 27552,16738 27551,16738 27537,16734 27523,16729 27508,16725 27504,16724 27494,16721 27480,16716 27466,16712 27460,16710 27452,16708 27438,16703 27423,16699 27414,16696 27409,16695 27395,16691 27381,16687 27367,16683 27365,16682 27353,16678 27339,16674 27324,16669 27321,16668 27310,16664 27296,16659 27284,16654 27282,16653 27268,16648 27254,16643 27247,16640 27240,16637 27225,16631 27214,16626 27211,16625 27197,16619 27183,16613 27182,16612 27169,16606 27155,16600 27151,16598 27141,16593 27126,16586 27123,16584 27112,16579 27098,16572 27094,16570 27084,16565 27070,16557 27069,16556 27056,16548 27045,16542 27042,16540 27027,16531 27022,16528 27013,16523 26999,16514 26999,16514 26985,16504 26980,16500 26971,16493 26961,16486 26957,16483 26942,16472 26942,16472 26928,16462 26924,16458 26914,16451 26906,16444 26900,16438 26891,16430 26886,16425 26876,16416 26872,16413 26860,16402 26858,16400 26845,16388 26844,16387 26829,16374 26817,16360 26815,16357 26805,16346 26801,16341 26793,16332 26787,16324 26781,16318 26773,16308 26770,16304 26759,16291 26758,16290 26746,16276 26745,16275 26736,16262 26730,16254 26726,16248 26716,16234 26716,16233 26707,16220 26702,16213 26697,16206 26688,16192 26688,16192 26678,16178 26674,16171 26669,16164 26660,16151 26659,16150 26651,16136 26646,16126 26643,16122 26636,16108 26631,16100 26628,16094 26620,16080 26617,16075 26612,16066 26604,16052 26603,16050 26597,16038 26589,16024 26589,16024 26581,16010 26575,15999 26573,15996 26567,15982 26561,15969 26560,15968 26554,15954 26547,15940 26547,15939 26541,15926 26534,15912 26532,15908 26528,15898 26521,15884 26518,15878 26515,15870 26508,15856 26504,15847 26502,15842 26495,15828 26490,15817 26489,15814 26483,15800 26478,15786 26476,15780 26473,15772 26467,15758 26462,15744 26462,15743 26457,15730 26452,15716 26448,15705 26446,15702 26441,15688 26436,15674 26433,15667 26431,15660 26425,15646 26420,15632 26419,15629 26415,15618 26410,15604 26405,15592 26404,15590 26400,15576 26395,15562 26391,15548 26391,15548 26386,15534 26382,15520 26378,15506 26377,15503 26373,15492 26369,15477 26365,15464 26363,15457 26360,15450 26356,15436 26351,15421 26349,15412 26347,15408 26343,15394 26338,15380 26334,15367 26334,15365 26330,15352 26325,15338 26321,15324 26320,15322 26317,15310 26313,15296 26309,15282 26306,15272 26305,15268 26301,15254 26297,15239 26293,15225 26292,15222 26289,15211 26285,15198 26281,15184 26278,15171 26277,15169 26273,15155 26270,15141 26266,15127 26264,15120 26262,15114 26258,15099 26254,15085 26250,15072 26250,15070 26246,15057 26242,15044 26238,15029 26235,15019 26234,15016 26231,15001 26227,14987 26224,14973 26221,14963 26220,14959 26217,14946 26214,14931 26210,14917 26207,14905 26207,14903 26203,14889 26200,14875 26196,14861 26193,14847 26193,14847 26190,14833 26186,14819 26183,14805 26179,14791 26179,14789 26176,14777 26173,14763 26169,14749 26166,14735 26165,14731 26162,14721 26159,14707 26155,14693 26152,14679 26150,14673 26149,14665 26146,14651 26143,14637 26140,14623 26137,14609 26136,14608 26134,14595 26131,14581 26128,14567 26125,14553 26122,14540 26122,14539 26119,14525 26116,14511 26113,14497 26111,14483 26108,14472 26108,14469 26105,14455 26102,14441 26099,14427 26096,14413 26094,14404 26093,14399 26090,14385 26087,14371 26084,14357 26081,14343 26080,14336 26078,14329 26076,14315 26073,14301 26070,14287 26067,14273 26066,14268 26064,14259 26061,14245 26058,14231 26056,14217 26053,14203 26051,14196 26050,14189 26047,14175 26045,14161 26042,14147 26039,14133 26037,14124 26036,14119 26034,14105 26031,14091 26028,14077 26026,14063 26023,14051 26023,14049 26020,14035 26017,14021 26015,14007 26012,13993 26009,13979 26009,13978 26006,13965 26004,13951 26001,13937 25998,13923 25996,13909 25995,13906 25993,13895 25990,13881 25987,13867 25985,13853 25982,13839 25981,13833 25979,13825 25976,13811 25974,13797 25971,13783 25969,13769 25967,13758 25966,13755 25963,13741 25961,13727 25958,13713 25956,13699 25953,13685 25952,13682 25950,13671 25948,13657 25945,13643 25943,13629 25940,13615 25938,13606 25937,13601 25935,13587 25932,13573 25930,13559 25927,13545 25924,13531 25924,13530 25922,13517 25919,13503 25917,13489 25914,13475 25911,13461 25910,13453 25909,13447 25906,13433 25904,13419 25901,13405 25899,13391 25896,13377 25893,13363 25891,13349 25888,13335 25885,13321 25883,13307 25882,13301 25880,13293 25878,13279 25875,13265 25872,13251 25870,13237 25868,13225 25867,13223 25865,13209 25862,13195 25859,13181 25857,13167 25854,13153 25853,13150 25852,13139 25849,13125 25846,13111 25844,13097 25841,13083 25839,13074 25838,13069 25836,13055 25833,13041 25831,13027 25828,13013 25825,12999 25825,12998 25823,12985 25820,12971 25818,12957 25815,12943 25812,12929 25811,12922 25810,12915 25807,12901 25804,12887 25802,12873 25799,12859 25797,12848 25796,12845 25794,12831 25791,12817 25788,12803 25786,12789 25783,12775 25783,12774 25780,12761 25777,12747 25775,12733 25772,12719 25769,12705 25769,12701 25767,12691 25764,12677 25761,12663 25759,12649 25756,12635 25754,12628 25753,12621 25750,12607 25748,12593 25745,12579 25742,12565 25740,12554 25740,12551 25737,12537 25734,12523 25732,12509 25729,12495 25726,12481 25723,12467 25721,12453 25718,12439 25715,12425 25712,12413 25712,12411 25709,12397 25706,12383 25703,12369 25700,12355 25698,12347 25696,12341 25693,12327 25690,12313 25687,12299 25684,12285 25684,12282 25681,12271 25678,12257 25675,12243 25672,12229 25670,12217 25669,12215 25666,12201 25663,12187 25660,12173 25657,12159 25655,12151 25654,12145 25651,12131 25648,12117 25645,12103 25642,12089 25641,12086 25639,12075 25636,12061 25632,12047 25629,12033 25627,12027 25625,12019 25621,12005 25618,11991 25614,11977 25613,11972 25610,11963 25607,11949 25603,11935 25600,11921 25599,11918 25596,11907 25592,11893 25589,11879 25585,11865 25585,11863 25582,11851 25578,11837 25574,11823 25571,11809 25571,11808 25567,11795 25563,11781 25560,11767 25556,11754 25556,11753 25553,11739 25548,11725 25544,11711 25542,11706 25539,11697 25535,11683 25530,11669 25528,11663 25525,11655 25521,11641 25516,11627 25514,11621 25511,11613 25507,11599 25502,11585 25500,11579 25497,11571 25492,11556 25488,11543 25486,11536 25483,11529 25478,11515 25474,11501 25472,11494 25469,11487 25464,11473 25458,11458 25457,11458 25451,11444 25444,11430 25443,11428 25438,11416 25431,11402 25429,11399 25424,11388 25418,11374 25415,11369 25411,11360 25404,11347 25401,11339 25398,11332 25391,11318 25387,11309 25385,11304 25377,11290 25373,11285 25366,11277 25358,11267 25355,11262 25344,11248 25344,11248 25334,11234 25330,11230 25323,11220 25316,11211 25312,11207 25302,11192 25288,11179 25287,11178 25273,11169 25266,11164 25259,11160 25245,11150 25231,11141 25224,11136 25217,11131 25203,11126 25189,11123 25187,11122 25174,11120 25160,11117 25146,11115 25132,11112 25118,11110 25104,11110 25090,11110 25076,11110 25061,11110 25047,11110 25033,11110 25019,11109 25009,11108 25005,11108 24991,11108 24976,11107 24962,11106 24948,11103 24934,11098 24924,11094 24920,11093 24906,11088 24892,11083 24886,11080 24878,11077 24863,11069 24861,11066 24849,11055 24846,11052 24835,11042 24831,11038 24821,11028 24817,11024 24807,11015 24802,11010 24793,11001 24787,10996 24778,10983 24778,10982 24771,10968 24764,10957 24763,10954 24755,10940 24750,10931 24748,10926 24740,10912 24736,10904 24733,10898 24725,10884 24722,10878 24718,10870 24710,10856 24708,10852 24702,10842 24697,10828 24694,10820 24692,10814 24687,10800 24682,10786 24679,10778 24678,10772 24673,10758 24668,10744 24665,10736 24663,10730 24659,10716 24654,10702 24651,10694 24649,10688 24644,10674 24640,10660 24637,10652 24635,10646 24630,10632 24626,10618 24623,10610 24621,10604 24616,10590 24612,10576 24609,10564 24609,10563 24605,10549 24602,10535 24599,10521 24595,10507 24595,10504 24592,10493 24589,10479 24586,10465 24582,10451 24580,10444 24579,10437 24576,10423 24572,10409 24569,10395 24566,10384 24566,10381 24562,10367 24559,10353 24556,10339 24552,10325 24552,10324 24549,10311 24546,10297 24543,10283 24539,10269 24538,10264 24536,10255 24533,10241 24529,10227 24526,10213 24524,10199 24524,10199 24521,10185 24519,10171 24516,10157 24514,10143 24511,10129 24510,10122 24508,10115 24506,10101 24503,10087 24501,10073 24498,10059 24496,10045 24496,10045 24493,10031 24490,10017 24488,10003 24485,9989 24483,9975 24481,9968 24480,9961 24478,9947 24475,9933 24473,9919 24470,9905 24467,9891 24467,9891 24465,9877 24462,9863 24460,9849 24457,9835 24455,9821 24453,9814 24452,9807 24449,9793 24447,9779 24444,9765 24442,9751 24440,9737 24439,9732 24438,9723 24435,9709 24433,9695 24431,9681 24429,9667 24427,9653 24425,9639 24425,9639 24423,9625 24421,9611 24418,9597 24416,9583 24414,9569 24412,9555 24411,9546 24410,9541 24408,9527 24406,9513 24404,9499 24401,9485 24399,9471 24397,9457 24397,9453 24395,9443 24393,9429 24391,9415 24389,9401 24386,9387 24384,9373 24382,9360 24382,9359 24380,9345 24378,9331 24376,9317 24374,9303 24372,9289 24369,9275 24368,9267 24367,9261 24365,9247 24363,9233 24361,9219 24359,9205 24357,9191 24355,9177 24354,9171 24353,9163 24351,9149 24349,9135 24347,9121 24345,9107 24344,9093 24342,9079 24340,9066 24340,9065 24338,9051 24336,9037 24334,9023 24332,9009 24330,8995 24329,8981 24327,8967 24326,8961 24325,8953 24323,8939 24321,8925 24319,8911 24317,8897 24315,8883 24313,8869 24312,8855 24312,8855 24310,8841 24308,8827 24306,8813 24304,8799 24302,8785 24300,8771 24298,8757 24298,8750 24297,8743 24295,8729 24293,8715 24291,8701 24289,8687 24287,8673 24285,8659 24283,8645 24283,8645 24282,8631 24280,8617 24278,8603 24276,8589 24274,8575 24272,8561 24270,8547 24269,8539 24268,8533 24267,8519 24265,8505 24263,8491 24261,8477 24259,8463 24257,8449 24256,8435 24255,8431 24254,8421 24252,8407 24250,8392 24248,8379 24246,8365 24245,8351 24243,8337 24241,8323 24241,8322 24239,8309 24237,8295 24235,8280 24234,8266 24232,8253 24230,8239 24228,8225 24227,8214 24226,8211 24225,8197 24223,8183 24221,8169 24219,8154 24217,8140 24215,8126 24214,8113 24213,8106 24212,8099 24210,8085 24208,8071 24206,8057 24204,8043 24203,8028 24201,8014 24199,8000 24199,7998 24197,7986 24195,7973 24193,7959 24192,7945 24190,7931 24188,7917 24186,7902 24184,7891 24184,7888 24182,7875 24180,7861 24178,7846 24176,7832 24175,7819 24173,7804 24171,7791 24170,7787 24169,7776 24167,7762 24165,7749 24163,7734 24161,7720 24159,7707 24157,7692 24156,7683 24155,7678 24154,7665 24152,7650 24150,7636 24148,7623 24146,7608 24144,7594 24142,7580 24142,7579 24140,7566 24138,7552 24136,7538 24135,7524 24133,7510 24131,7496 24129,7482 24128,7475 24127,7468 24125,7454 24123,7440 24121,7426 24119,7412 24117,7398 24115,7384 24114,7372 24114,7370 24112,7356 24110,7342 24108,7328 24106,7314 24104,7300 24102,7286 24100,7272 24100,7271 24098,7258 24095,7244 24093,7230 24091,7216 24088,7202 24086,7188 24085,7183 24084,7174 24082,7160 24079,7146 24077,7132 24075,7118 24073,7104 24071,7096 24070,7090 24068,7076 24066,7062 24064,7048 24061,7034 24059,7020 24057,7009 24057,7006 24054,6992 24052,6978 24050,6964 24048,6950 24045,6936 24043,6922 24043,6921 24041,6908 24039,6894 24036,6880 24034,6866 24032,6852 24030,6838 24029,6834 24027,6824 24025,6810 24023,6796 24020,6782 24018,6768 24016,6754 24015,6749 24013,6740 24010,6726 24008,6712 24005,6698 24002,6684 24001,6676 23999,6670 23997,6656 23994,6642 23991,6628 23988,6614 23986,6603 23986,6600 23983,6586 23980,6572 23978,6558 23975,6544 23972,6531 23972,6530 23969,6516 23967,6502 23964,6488 23961,6474 23958,6460 23958,6458 23956,6446 23953,6432 23950,6418 23948,6404 23945,6390 23944,6386 23942,6376 23939,6362 23937,6348 23934,6334 23931,6320 23930,6317 23926,6306 23922,6292 23917,6278 23916,6272 23913,6264 23909,6250 23904,6236 23901,6228 23900,6222 23895,6208 23891,6194 23887,6183 23886,6180 23882,6166 23877,6152 23873,6139 23873,6138 23869,6124 23864,6110 23860,6096 23859,6094 23855,6082 23851,6068 23845,6054 23845,6054 23836,6040 23831,6033 23826,6026 23817,6012 23816,6012 23807,5998 23802,5992 23797,5984 23788,5972 23787,5970 23777,5956 23774,5952 23767,5942 23760,5935 23746,5939 23736,5942 23732,5943 23718,5948 23703,5952 23691,5956 23689,5956 23675,5964 23671,5970 23663,5984 23661,5988 23655,5998 23647,6012 23647,6013 23639,6026 23633,6038 23632,6040 23624,6054 23619,6063 23616,6068 23608,6082 23604,6088 23600,6096 23592,6110 23590,6114 23587,6124 23582,6138 23577,6152 23576,6154 23572,6166 23567,6180 23562,6194 23562,6194 23557,6208 23552,6222 23548,6235 23547,6236 23542,6250 23537,6264 23534,6275 23533,6278 23528,6292 23523,6306 23520,6315 23518,6320 23513,6334 23508,6348 23505,6356 23503,6362 23499,6376 23495,6390 23491,6403 23491,6404 23487,6418 23483,6432 23478,6446 23477,6451 23474,6460 23470,6474 23466,6488 23463,6498 23462,6502 23458,6516 23453,6530 23449,6544 23449,6546 23445,6558 23441,6572 23437,6586 23435,6593 23433,6600 23429,6614 23424,6628 23421,6641 23420,6642 23416,6656 23412,6670 23408,6684 23406,6691 23404,6698 23400,6712 23396,6726 23392,6740 23392,6740 23388,6754 23384,6768 23380,6783 23378,6790 23376,6796 23372,6810 23368,6824 23364,6838 23364,6840 23360,6852 23356,6866 23352,6880 23350,6889 23348,6894 23344,6908 23340,6922 23336,6936 23336,6939 23332,6950 23327,6964 23323,6978 23322,6982 23318,6992 23314,7006 23309,7020 23307,7026 23305,7034 23300,7048 23295,7062 23293,7069 23291,7076 23286,7090 23282,7104 23279,7112 23277,7119 23273,7132 23268,7147 23265,7156 23263,7160 23259,7175 23254,7188 23251,7199 23250,7203 23244,7216 23238,7231 23237,7233 23232,7245 23226,7258 23223,7266 23220,7272 23214,7287 23208,7300 23208,7301 23202,7315 23196,7329 23194,7333 23190,7342 23184,7357 23180,7367 23179,7371 23172,7385 23167,7399 23166,7400 23157,7412 23152,7417 23144,7427 23138,7434 23132,7441 23124,7450 23120,7455 23109,7467 23108,7469 23095,7483 23095,7483 23085,7497 23081,7499 23067,7498 23062,7496 23053,7495 23039,7491 23025,7488 23010,7485 23001,7482 22998,7483 22996,7483 22996,7482 22987,7468 22982,7460 22979,7454 22971,7440 22968,7435 22963,7426 22955,7412 22954,7410 22947,7398 22940,7385 22939,7384 22931,7370 22925,7360 22923,7356 22915,7342 22911,7335 22908,7328 22903,7314 22899,7300 22897,7296 22894,7286 22890,7272 22885,7258 22883,7253 22880,7244 22876,7230 22871,7216 22869,7209 22867,7202 22862,7188 22858,7174 22855,7166 22853,7160 22848,7146 22844,7132 22841,7122 22839,7118 22835,7104 22830,7090 22827,7079 22826,7076 22821,7062 22818,7048 22815,7034 22812,7025 22811,7020 22808,7006 22805,6992 22801,6978 22798,6965 22798,6964 22795,6950 22791,6936 22788,6922 22785,6908 22784,6906 22781,6894 22778,6880 22775,6866 22771,6852 22770,6847 22768,6838 22765,6824 22761,6810 22758,6796 22756,6788 22754,6782 22751,6768 22748,6754 22744,6740 22742,6728 22741,6726 22738,6712 22735,6698 22732,6684 22729,6670 22728,6665 22726,6656 22723,6642 22719,6628 22716,6614 22713,6600 22713,6600 22710,6586 22707,6572 22704,6558 22701,6544 22699,6534 22698,6530 22695,6516 22692,6502 22689,6488 22686,6474 22685,6469 22683,6460 22680,6446 22677,6432 22674,6418 22671,6404 22671,6403 22668,6390 22665,6376 22662,6362 22659,6348 22657,6337 22656,6334 22653,6320 22650,6306 22647,6292 22644,6278 22643,6273 22641,6264 22637,6250 22634,6236 22631,6222 22628,6210 22628,6208 22625,6194 22622,6180 22619,6166 22616,6152 22614,6147 22612,6138 22609,6124 22606,6110 22603,6096 22600,6084 22600,6082 22597,6068 22594,6054 22590,6040 22587,6026 22586,6020 22584,6012 22581,5998 22578,5984 22575,5970 22572,5957 22572,5956 22568,5942 22565,5928 22562,5914 22558,5900 22558,5900 22554,5886 22550,5872 22546,5858 22544,5851 22542,5844 22538,5830 22534,5816 22530,5802 22529,5801 22526,5788 22522,5774 22518,5760 22515,5752 22514,5746 22510,5732 22506,5718 22502,5704 22501,5703 22498,5690 22494,5676 22490,5662 22487,5653 22486,5648 22482,5634 22476,5620 22473,5612 22470,5606 22463,5592 22459,5584 22456,5578 22448,5564 22445,5557 22441,5550 22434,5536 22430,5529 22427,5522 22420,5508 22416,5501 22413,5494 22406,5480 22402,5473 22399,5466 22388,5454 22375,5452 22374,5452 22360,5450 22346,5449 22331,5447 22317,5445 22303,5451 22302,5452 22294,5466 22289,5476 22287,5480 22279,5494 22275,5502 22271,5508 22264,5522 22261,5528 22256,5536 22248,5550 22247,5553 22241,5564 22233,5578 22232,5579 22225,5592 22219,5606 22218,5610 22215,5620 22211,5634 22207,5648 22204,5660 22203,5662 22200,5676 22196,5690 22192,5704 22190,5711 22188,5718 22184,5732 22180,5746 22176,5760 22176,5761 22172,5774 22168,5788 22164,5802 22162,5812 22161,5816 22157,5830 22153,5844 22149,5858 22148,5862 22145,5872 22141,5886 22137,5900 22134,5914 22133,5915 22131,5928 22128,5942 22125,5956 22122,5970 22119,5983 22119,5984 22116,5998 22113,6012 22110,6026 22108,6040 22105,6052 22105,6054 22102,6068 22099,6082 22096,6096 22093,6110 22091,6121 22090,6124 22087,6138 22085,6152 22082,6166 22079,6180 22077,6190 22076,6194 22073,6208 22070,6222 22067,6236 22064,6250 22063,6258 22062,6264 22059,6278 22056,6292 22053,6306 22050,6320 22049,6328 22047,6334 22045,6348 22042,6362 22040,6376 22037,6390 22035,6404 22034,6407 22033,6418 22030,6432 22028,6446 22025,6460 22023,6474 22020,6488 22020,6488 22018,6502 22015,6516 22013,6530 22010,6544 22008,6558 22006,6568 22005,6572 22003,6586 22000,6600 21998,6614 21996,6628 21993,6642 21992,6649 21991,6656 21988,6670 21986,6684 21983,6698 21981,6712 21978,6726 21978,6729 21976,6740 21973,6754 21971,6768 21968,6782 21966,6796 21964,6809 21964,6810 21961,6824 21959,6838 21956,6852 21954,6866 21951,6881 21950,6890 21949,6894 21946,6908 21944,6922 21942,6936 21939,6951 21937,6964 21935,6972 21934,6978 21932,6992 21929,7007 21927,7021 21924,7034 21922,7048 21921,7053 21920,7062 21917,7077 21915,7091 21912,7104 21910,7118 21907,7133 21907,7134 21905,7147 21902,7161 21900,7174 21898,7188 21895,7203 21893,7215 21893,7217 21890,7231 21888,7244 21885,7259 21883,7273 21881,7287 21879,7296 21878,7301 21876,7314 21873,7329 21870,7343 21868,7357 21865,7370 21865,7372 21862,7385 21860,7399 21857,7413 21854,7427 21852,7441 21851,7446 21849,7455 21846,7469 21844,7483 21841,7497 21838,7511 21836,7520 21836,7525 21833,7539 21830,7553 21828,7567 21825,7581 21822,7594 21822,7595 21820,7609 21817,7623 21814,7637 21812,7651 21809,7665 21808,7669 21806,7679 21804,7693 21801,7707 21798,7721 21796,7735 21794,7743 21793,7749 21790,7763 21787,7777 21783,7791 21780,7805 21780,7806 21777,7819 21773,7833 21770,7847 21767,7861 21766,7865 21763,7875 21760,7889 21757,7903 21753,7917 21752,7924 21750,7931 21747,7945 21743,7959 21740,7973 21737,7983 21737,7987 21733,8001 21730,8015 21727,8029 21723,8043 21723,8043 21720,8057 21717,8071 21713,8085 21710,8099 21709,8102 21706,8113 21703,8127 21698,8141 21695,8152 21694,8155 21690,8169 21686,8183 21681,8197 21681,8198 21677,8211 21673,8225 21668,8239 21667,8244 21664,8253 21660,8267 21656,8281 21653,8290 21651,8295 21647,8309 21643,8323 21638,8337 21638,8337 21634,8351 21630,8365 21625,8379 21624,8383 21621,8393 21616,8407 21610,8419 21609,8421 21602,8435 21596,8448 21596,8449 21589,8463 21582,8477 21582,8477 21575,8491 21569,8505 21568,8507 21562,8519 21555,8533 21554,8536 21548,8547 21542,8561 21539,8565 21535,8575 21525,8585 21521,8589 21511,8598 21505,8603 21497,8610 21488,8617 21483,8622 21472,8631 21469,8634 21456,8645 21454,8646 21440,8650 21426,8648 21412,8645 21410,8645 21398,8642 21384,8639 21370,8637 21357,8631 21355,8630 21341,8619 21339,8617 21327,8607 21322,8603 21313,8595 21305,8589 21299,8583 21288,8575 21285,8572 21272,8561 21271,8559 21258,8547 21256,8545 21244,8533 21242,8531 21230,8519 21228,8517 21216,8505 21214,8503 21201,8491 21200,8489 21186,8477 21172,8468 21162,8463 21157,8460 21143,8452 21138,8449 21129,8443 21115,8435 21115,8435 21101,8429 21087,8433 21082,8435 21073,8437 21058,8442 21044,8446 21037,8449 21030,8450 21016,8459 21011,8463 21003,8477 21002,8478 20993,8491 20988,8499 20984,8505 20974,8519 20974,8520 20965,8533 20959,8541 20956,8547 20946,8561 20945,8563 20937,8575 20931,8584 20929,8589 20924,8603 20919,8617 20917,8623 20914,8631 20909,8645 20904,8659 20903,8663 20899,8673 20894,8687 20889,8701 20889,8702 20884,8715 20879,8729 20875,8742 20874,8743 20869,8757 20864,8771 20860,8781 20859,8785 20854,8799 20849,8813 20846,8821 20844,8827 20841,8841 20837,8855 20834,8869 20832,8875 20830,8883 20826,8897 20823,8911 20819,8925 20818,8930 20816,8939 20812,8953 20808,8967 20805,8981 20804,8985 20801,8995 20798,9009 20794,9023 20790,9037 20790,9040 20787,9051 20783,9065 20780,9079 20776,9093 20776,9095 20773,9107 20769,9121 20765,9135 20762,9149 20761,9150 20758,9163 20755,9177 20752,9191 20749,9205 20747,9214 20746,9219 20743,9233 20740,9247 20737,9261 20734,9275 20733,9280 20731,9289 20728,9303 20725,9317 20722,9331 20719,9345 20719,9346 20716,9359 20713,9373 20710,9387 20707,9401 20705,9412 20704,9415 20701,9429 20698,9443 20695,9457 20692,9471 20691,9477 20689,9485 20686,9499 20683,9513 20680,9527 20677,9541 20677,9543 20674,9555 20671,9569 20668,9583 20666,9597 20663,9611 20662,9613 20660,9625 20657,9639 20655,9653 20652,9667 20649,9681 20648,9685 20646,9695 20643,9709 20641,9723 20638,9737 20635,9751 20634,9756 20632,9765 20630,9779 20627,9793 20624,9807 20621,9821 20620,9828 20619,9835 20616,9849 20613,9863 20610,9877 20608,9891 20606,9900 20605,9905 20602,9919 20599,9933 20596,9947 20594,9961 20592,9971 20591,9975 20588,9989 20585,10003 20583,10017 20580,10031 20578,10043 20577,10045 20574,10059 20572,10073 20569,10087 20566,10101 20563,10115 20563,10115 20561,10129 20558,10143 20555,10157 20552,10171 20549,10185 20549,10186 20547,10199 20544,10213 20541,10227 20538,10241 20536,10255 20535,10258 20533,10269 20530,10283 20527,10297 20525,10311 20522,10325 20521,10330 20519,10339 20516,10353 20514,10367 20511,10381 20508,10395 20507,10401 20505,10409 20502,10423 20500,10437 20497,10451 20494,10465 20493,10470 20491,10479 20488,10493 20485,10507 20482,10521 20479,10535 20479,10536 20476,10549 20473,10563 20470,10576 20467,10590 20464,10601 20464,10605 20461,10618 20458,10632 20455,10646 20452,10661 20450,10667 20449,10674 20446,10688 20443,10702 20440,10717 20437,10730 20436,10734 20434,10744 20431,10758 20428,10773 20425,10786 20422,10800 20422,10800 20419,10814 20416,10828 20412,10842 20409,10857 20408,10861 20406,10870 20402,10885 20399,10899 20395,10912 20394,10918 20392,10927 20388,10941 20385,10954 20381,10969 20380,10975 20378,10982 20374,10996 20371,11011 20367,11025 20365,11032 20364,11039 20360,11053 20357,11067 20353,11081 20351,11090 20350,11095 20346,11109 20343,11123 20340,11137 20337,11147 20336,11151 20333,11165 20329,11179 20325,11193 20323,11198 20320,11207 20316,11221 20312,11235 20309,11243 20307,11249 20303,11263 20298,11277 20295,11289 20294,11291 20290,11305 20285,11319 20281,11333 20281,11334 20277,11347 20272,11361 20268,11375 20266,11379 20263,11389 20259,11403 20255,11417 20252,11424 20250,11431 20246,11445 20241,11459 20238,11465 20235,11473 20229,11487 20224,11498 20223,11501 20217,11515 20211,11529 20210,11530 20204,11543 20198,11557 20196,11563 20192,11571 20186,11585 20181,11596 20180,11599 20174,11613 20168,11627 20167,11629 20162,11641 20155,11655 20153,11659 20147,11669 20139,11681 20138,11683 20129,11697 20125,11704 20121,11711 20112,11725 20111,11727 20103,11739 20097,11749 20095,11753 20086,11767 20082,11772 20077,11781 20068,11792 20066,11795 20054,11807 20052,11809 20040,11820 20038,11823 20026,11834 20023,11837 20012,11848 20009,11851 19998,11861 19994,11865 19983,11875 19979,11879 19969,11886 19961,11893 19955,11897 19944,11907 19941,11909 19927,11920 19926,11921 19913,11931 19909,11935 19899,11943 19892,11949 19884,11956 19877,11963 19870,11969 19862,11977 19856,11982 19847,11991 19842,11995 19832,12005 19828,12008 19816,12019 19814,12022 19806,12033 19800,12042 19796,12047 19786,12061 19785,12062 19776,12075 19771,12081 19766,12089 19757,12102 19756,12103 19746,12117 19743,12121 19736,12131 19729,12142 19727,12145 19720,12159 19715,12170 19713,12173 19706,12187 19701,12199 19700,12201 19693,12215 19686,12228 19686,12229 19679,12243 19672,12257 19672,12257 19665,12271 19659,12285 19658,12286 19652,12299 19645,12313 19644,12315 19639,12327 19634,12341 19630,12351 19628,12355 19623,12369 19618,12383 19616,12388 19612,12397 19607,12411 19602,12425 19602,12425 19596,12439 19591,12453 19587,12462 19586,12467 19580,12481 19575,12495 19573,12500 19570,12509 19564,12523 19559,12537 19559,12537 19554,12551 19550,12565 19545,12579 19545,12580 19541,12593 19536,12607 19532,12621 19531,12624 19527,12635 19523,12649 19519,12663 19517,12669 19514,12677 19510,12691 19505,12705 19503,12713 19501,12719 19496,12733 19492,12747 19488,12758 19487,12761 19483,12775 19479,12789 19474,12802 19474,12803 19470,12817 19466,12831 19461,12845 19460,12849 19457,12859 19453,12873 19449,12887 19446,12896 19444,12901 19440,12915 19436,12929 19432,12942 19432,12943 19427,12957 19423,12971 19419,12985 19418,12989 19415,12999 19410,13013 19406,13027 19404,13036 19402,13041 19398,13055 19393,13069 19389,13083 19389,13083 19385,13097 19381,13111 19377,13125 19375,13131 19373,13139 19369,13153 19365,13167 19361,13179 19360,13181 19356,13195 19352,13209 19348,13223 19347,13227 19344,13237 19340,13251 19336,13265 19333,13275 19332,13279 19328,13293 19323,13307 19319,13321 19319,13323 19315,13335 19311,13349 19307,13363 19305,13371 19303,13377 19299,13391 19294,13405 19290,13418 19290,13419 19286,13433 19282,13447 19278,13461 19276,13466 19273,13475 19269,13489 19265,13503 19262,13513 19261,13517 19257,13531 19252,13545 19248,13559 19248,13560 19244,13573 19240,13587 19235,13601 19234,13607 19231,13615 19227,13629 19223,13643 19220,13652 19218,13657 19213,13671 19208,13685 19206,13694 19204,13699 19199,13713 19194,13727 19191,13735 19189,13741 19184,13755 19180,13769 19177,13776 19175,13783 19170,13797 19165,13811 19163,13818 19160,13825 19156,13839 19151,13853 19149,13859 19146,13867 19141,13881 19136,13895 19135,13897 19130,13909 19124,13923 19121,13932 19119,13937 19113,13951 19107,13965 19106,13967 19101,13979 19096,13993 19092,14002 19090,14007 19084,14021 19079,14035 19078,14036 19073,14049 19067,14063 19064,14071 19062,14077 19055,14091 19050,14102 19048,14105 19041,14119 19036,14130 19034,14133 19027,14147 19022,14157 19020,14161 19012,14175 19008,14185 19005,14189 18998,14203 18993,14213 18991,14217 18984,14231 18979,14241 18977,14245 18968,14259 18965,14264 18959,14273 18951,14285 18949,14287 18940,14301 18937,14306 18931,14315 18923,14328 18921,14329 18912,14343 18908,14349 18903,14357 18894,14370 18893,14371 18882,14386 18880,14388 18870,14399 18866,14405 18859,14413 18852,14422 18847,14427 18838,14439 18836,14441 18824,14455 18824,14456 18812,14469 18809,14473 18800,14483 18795,14488 18786,14497 18781,14502 18772,14512 18767,14517 18759,14525 18753,14532 18745,14539 18739,14546 18732,14553 18725,14561 18718,14567 18710,14575 18705,14581 18696,14590 18691,14595 18682,14605 18678,14609 18668,14620 18664,14623 18654,14634 18651,14637 18640,14650 18638,14651 18627,14665 18626,14667 18615,14680 18611,14684 18603,14694 18597,14701 18592,14707 18583,14718 18580,14721 18569,14735 18568,14735 18557,14750 18555,14753 18547,14764 18541,14773 18537,14777 18527,14792 18527,14793 18518,14806 18512,14813 18508,14820 18498,14833 18498,14834 18488,14848 18484,14853 18478,14862 18470,14874 18469,14876 18461,14890 18456,14897 18452,14904 18443,14918 18442,14920 18435,14932 18428,14943 18426,14946 18417,14960 18413,14966 18409,14974 18400,14988 18399,14988 18391,15002 18385,15013 18384,15016 18376,15030 18371,15038 18368,15044 18360,15058 18357,15063 18352,15072 18344,15086 18343,15089 18337,15100 18329,15114 18328,15114 18321,15128 18314,15139 18313,15142 18305,15156 18300,15163 18297,15170 18288,15184 18286,15187 18280,15198 18272,15211 18272,15212 18263,15226 18258,15235 18255,15240 18247,15254 18244,15259 18238,15268 18230,15282 18230,15282 18222,15296 18215,15306 18213,15310 18205,15324 18201,15330 18197,15338 18189,15352 18187,15355 18181,15366 18173,15379 18172,15380 18164,15394 18159,15403 18156,15408 18148,15422 18145,15427 18140,15436 18131,15450 18130,15451 18123,15464 18116,15473 18114,15478 18105,15492 18102,15495 18096,15506 18088,15517 18087,15520 18078,15534 18074,15540 18069,15548 18060,15562 18051,15576 18046,15584 18042,15590 18032,15603 18031,15604 18020,15618 18017,15621 18009,15632 18003,15639 17998,15646 17989,15657 17987,15660 17976,15674 17975,15676 17965,15688 17961,15694 17954,15702 17947,15711 17942,15716 17932,15727 17930,15730 17918,15743 17918,15744 17905,15758 17904,15759 17893,15772 17890,15775 17881,15786 17876,15791 17868,15800 17862,15806 17854,15814 17848,15819 17838,15828 17834,15832 17822,15842 17819,15844 17807,15856 17805,15857 17791,15870 17791,15870 17777,15882 17775,15884 17763,15892 17755,15898 17750,15902 17735,15912 17721,15922 17715,15926 17707,15931 17695,15940 17693,15941 17679,15950 17673,15954 17665,15959 17651,15967 17649,15968 17636,15976 17626,15982 17622,15984 17608,15993 17603,15996 17594,16001 17580,16010 17579,16010 17566,16018 17555,16024 17552,16026 17537,16034 17532,16038 17523,16043 17509,16051 17508,16052 17495,16060 17487,16066 17481,16070 17467,16079 17466,16080 17453,16089 17445,16094 17438,16098 17424,16108 17424,16108 17410,16117 17403,16122 17396,16126 17382,16136 17382,16136 17368,16145 17361,16150 17354,16155 17340,16164 17339,16164 17325,16174 17320,16178 17311,16185 17302,16192 17297,16196 17285,16206 17283,16207 17269,16218 17267,16220 17255,16229 17249,16234 17240,16240 17230,16248 17226,16251 17212,16261 17210,16262 17198,16271 17191,16276 17184,16281 17171,16290 17170,16291 17156,16301 17152,16304 17141,16311 17131,16318 17127,16321 17113,16330 17111,16332 17099,16340 17091,16346 17085,16350 17071,16360 17070,16360 17057,16370 17051,16374 17042,16380 17032,16388 17028,16391 17014,16401 17013,16402 17000,16411 16993,16416 16986,16421 16972,16428 16969,16430 16958,16436 16943,16443 16942,16444 16929,16451 16915,16458 16901,16465 16888,16472 16887,16473 16873,16480 16861,16486 16859,16487 16844,16494 16833,16500 16830,16502 16816,16508 16802,16514 16801,16514 16788,16519 16774,16525 16765,16528 16759,16530 16745,16535 16731,16540 16726,16542 16717,16545 16703,16549 16689,16554 16682,16556 16675,16558 16660,16563 16646,16567 16635,16570 16632,16571 16618,16574 16604,16578 16590,16582 16582,16584 16576,16586 16561,16590 16547,16594 16535,16598 16533,16598 16519,16603 16505,16607 16491,16612 16490,16612 16477,16615 16462,16618 16448,16620 16434,16623 16420,16626 16419,16626 16406,16628 16392,16631 16378,16634 16363,16636 16349,16639 16341,16640 16335,16641 16321,16644 16307,16647 16293,16651 16280,16654 16279,16654 16264,16658 16250,16662 16236,16666 16226,16668 16222,16669 16208,16672 16194,16676 16180,16679 16168,16682 16165,16683 16151,16686 16137,16689 16123,16692 16109,16695 16103,16696 16095,16698 16081,16701 16066,16704 16052,16706 16038,16708 16024,16710 16022,16710 16010,16712 15996,16714 15982,16715 15967,16717 15953,16718 15939,16719 15925,16720 15911,16721 15897,16722 15885,16724 15882,16724 15868,16726 15854,16728 15840,16730 15826,16732 15812,16734 15798,16734 15783,16733 15769,16733 15755,16733 15741,16732 15727,16732 15713,16733 15699,16733 15684,16733 15670,16734 15656,16734 15642,16735 15628,16735 15614,16736 15600,16736 15585,16737 15571,16738 15557,16738 15548,16738 15543,16738 15529,16738 15515,16738 15501,16739 15486,16739 15474,16738 15472,16738 15458,16736 15444,16734 15430,16732 15416,16730 15402,16729 15387,16728 15373,16729 15359,16729 15345,16729 15331,16730 15317,16730 15303,16729 15288,16727 15274,16725 15263,16724 15260,16724 15246,16722 15232,16720 15218,16719 15204,16718 15189,16717 15175,16716 15161,16715 15147,16714 15133,16713 15119,16711 15112,16710 15105,16709 15090,16707 15076,16706 15062,16704 15048,16702 15034,16700 15020,16698 15006,16697 15001,16696 14991,16695 14977,16693 14963,16690 14949,16687 14935,16684 14928,16682 14921,16680 14907,16677 14892,16674 14878,16671 14864,16668 14862,16668 14850,16666 14836,16663 14822,16660 14808,16657 14796,16654 14793,16653 14779,16650 14765,16647 14751,16643 14737,16640 14737,16640 14723,16636 14709,16632 14694,16628 14686,16626 14680,16624 14666,16620 14652,16616 14638,16612 14637,16612 14624,16608 14609,16603 14595,16598 14595,16598 14581,16593 14567,16589 14553,16584 14553,16584 14539,16579 14525,16575 14511,16570 14510,16570 14496,16565 14482,16561 14468,16556 14467,16556 14454,16550 14440,16544 14436,16542 14426,16537 14412,16531 14404,16528 14397,16525 14383,16518 14371,16514 14369,16513 14355,16508 14341,16504 14330,16500 14327,16499 14313,16494 14298,16489 14291,16486 14284,16482 14270,16475 14264,16472 14256,16468 14242,16461 14236,16458 14228,16453 14213,16446 14209,16444 14199,16439 14185,16431 14183,16430 14171,16424 14157,16416 14156,16416 14143,16409 14130,16402 14129,16401 14115,16394 14104,16388 14100,16386 14086,16378 14079,16374 14072,16370 14058,16362 14053,16360 14044,16355 14030,16346 14029,16346 14015,16337 14008,16332 14001,16327 13987,16318 13973,16308 13966,16304 13959,16299 13945,16290 13945,16290 13931,16280 13923,16276 13916,16271 13902,16262 13902,16262 13888,16253 13880,16248 13874,16244 13860,16234 13859,16234 13846,16223 13842,16220 13832,16211 13825,16206 13817,16200 13808,16192 13803,16188 13790,16178 13789,16177 13775,16165 13773,16164 13761,16154 13756,16150 13747,16142 13739,16136 13733,16131 13721,16122 13718,16119 13704,16108 13690,16097 13686,16094 13676,16088 13662,16080 13661,16080 13648,16072 13637,16066 13634,16064 13619,16056 13613,16052 13605,16048 13597,16038 13591,16028 13588,16024 13578,16010 13577,16008 13568,15996 13563,15988 13559,15982 13549,15968 13549,15967 13539,15954 13535,15947 13530,15940 13520,15926 13520,15926 13508,15912 13506,15910 13495,15898 13492,15894 13483,15884 13478,15878 13470,15870 13464,15863 13458,15856 13450,15847 13445,15842 13436,15831 13432,15828 13421,15818 13417,15814 13407,15805 13401,15800 13393,15792 13386,15786 13379,15780 13370,15772 13365,15767 13355,15758 13351,15755 13342,15744 13337,15737 13332,15730 13322,15716 13322,15716 13313,15702 13308,15695 13303,15688 13294,15674 13294,15674 13284,15660 13280,15653 13274,15646 13266,15632 13266,15632 13252,15619 13249,15618 13237,15612 13223,15604 13222,15604 13209,15597 13195,15590 13195,15589 13181,15582 13172,15576 13167,15568 13163,15562 13154,15548 13153,15546 13145,15534 13138,15523 13136,15520 13127,15506 13124,15501 13119,15492 13110,15478 13110,15478 13101,15464 13096,15456 13092,15450 13083,15436 13082,15433 13074,15422 13068,15411 13066,15408 13057,15394 13054,15389 13048,15380 13039,15366 13039,15366 13030,15352 13025,15344 13021,15338 13013,15324 13011,15321 13004,15310 12997,15299 12995,15296 12987,15282 12983,15274 12979,15268 12971,15254 12969,15250 12963,15240 12955,15226 12955,15225 12947,15212 12940,15201 12939,15198 12931,15183 12926,15176 12922,15170 12914,15155 12912,15152 12906,15141 12899,15128 12898,15126 12891,15114 12884,15101 12883,15100 12875,15086 12870,15076 12867,15071 12859,15057 12856,15051 12851,15044 12844,15029 12841,15026 12836,15015 12827,15001 12827,15001 12817,14987 12813,14983 12806,14973 12799,14964 12796,14959 12785,14945 12774,14931 12771,14927 12763,14918 12757,14909 12753,14903 12742,14890 12742,14889 12732,14875 12728,14869 12723,14861 12714,14848 12713,14847 12704,14833 12700,14828 12694,14819 12686,14807 12685,14805 12676,14791 12672,14786 12666,14777 12658,14765 12656,14763 12649,14749 12643,14738 12642,14735 12635,14721 12629,14711 12628,14707 12620,14693 12615,14683 12613,14679 12606,14665 12601,14656 12599,14651 12591,14637 12587,14628 12584,14623 12577,14609 12573,14601 12570,14595 12562,14581 12559,14575 12554,14567 12546,14553 12544,14550 12538,14539 12530,14525 12530,14525 12522,14511 12516,14500 12515,14497 12507,14483 12502,14475 12499,14469 12491,14455 12488,14450 12483,14441 12474,14427 12465,14413 12460,14405 12456,14399 12447,14385 12445,14383 12438,14371 12431,14361 12429,14357 12420,14343 12417,14338 12411,14329 12403,14316 12403,14315 12393,14301 12389,14294 12384,14287 12375,14273 12375,14272 12366,14259 12361,14250 12357,14245 12348,14231 12346,14228 12339,14217 12332,14207 12330,14203 12321,14189 12318,14185 12314,14175 12308,14161 12304,14150 12303,14147 12298,14133 12292,14119 12290,14113 12287,14105 12281,14091 12276,14077 12276,14076 12271,14063 12265,14049 12262,14040 12260,14035 12254,14021 12249,14007 12247,14003 12243,13993 12238,13979 12233,13967 12233,13965 12226,13951 12220,13937 12219,13936 12213,13923 12206,13909 12205,13906 12200,13895 12193,13881 12191,13876 12187,13867 12180,13853 12177,13846 12173,13839 12167,13825 12163,13816 12160,13811 12154,13797 12148,13786 12147,13783 12139,13769 12134,13762 12130,13755 12122,13741 12120,13738 12114,13727 12106,13714 12105,13713 12097,13699 12092,13690 12089,13685 12080,13671 12078,13666 12072,13657 12064,13643 12063,13642 12058,13629 12053,13615 12049,13605 12048,13601 12043,13587 12038,13573 12035,13566 12033,13559 12028,13545 12023,13531 12021,13527 12018,13517 12013,13503 12007,13489 12007,13487 12002,13475 11997,13461 11993,13448 11992,13447 11987,13433 11982,13419 11979,13409 11977,13405 11970,13391 11964,13378 11964,13377 11957,13363 11951,13349 11950,13348 11944,13335 11938,13321 11936,13318 11931,13307 11925,13293 11922,13288 11918,13279 11912,13265 11908,13257 11905,13251 11898,13237 11894,13227 11892,13223 11886,13209 11880,13196 11879,13195 11873,13181 11867,13167 11866,13164 11860,13153 11854,13139 11851,13133 11848,13125 11841,13111 11837,13102 11835,13097 11829,13083 11823,13070 11823,13069 11816,13055 11810,13041 11809,13039 11803,13027 11796,13013 11795,13011 11788,12999 11781,12985 11781,12984 11774,12971 11767,12957 11766,12957 11759,12943 11752,12929 11752,12929 11745,12915 11738,12902 11738,12901 11730,12887 11724,12875 11723,12873 11716,12859 11710,12845 11710,12845 11703,12831 11697,12817 11696,12815 11690,12803 11683,12789 11682,12785 11677,12775 11670,12761 11667,12755 11664,12747 11657,12733 11653,12725 11650,12719 11644,12705 11639,12695 11637,12691 11628,12677 11625,12671 11620,12663 11611,12649 11611,12648 11603,12635 11597,12625 11594,12621 11586,12607 11583,12602 11577,12593 11569,12579 11568,12579 11560,12565 11554,12555 11552,12551 11546,12537 11540,12523 11540,12522 11535,12509 11529,12495 11526,12489 11523,12481 11517,12467 11512,12455 11511,12453 11505,12439 11499,12425 11498,12421 11493,12411 11488,12397 11484,12387 11482,12383 11476,12369 11470,12355 11469,12354 11463,12341 11455,12327 11455,12327 11448,12313 11441,12301 11440,12299 11432,12285 11427,12275 11425,12271 11417,12257 11413,12249 11410,12243 11402,12229 11399,12223 11395,12215 11387,12201 11385,12196 11381,12187 11375,12173 11370,12160 11370,12159 11364,12145 11359,12131 11356,12124 11354,12117 11348,12103 11343,12089 11342,12087 11337,12075 11332,12061 11328,12050 11327,12047 11321,12033 11316,12019 11314,12013 11311,12005 11305,11991 11300,11977 11300,11977 11293,11963 11286,11949 11286,11947 11279,11935 11273,11921 11271,11918 11266,11907 11259,11893 11257,11889 11252,11879 11245,11865 11243,11860 11238,11851 11231,11837 11229,11832 11225,11823 11218,11809 11215,11803 11211,11795 11204,11781 11201,11773 11198,11767 11191,11753 11187,11743 11184,11739 11178,11725 11172,11713 11171,11711 11165,11697 11158,11683 11158,11683 11151,11669 11145,11655 11144,11654 11138,11641 11131,11627 11130,11624 11124,11613 11116,11599 11116,11597 11109,11585 11102,11571 11101,11570 11094,11557 11088,11545 11086,11543 11079,11529 11073,11519 11071,11514 11064,11500 11059,11492 11056,11487 11049,11473 11045,11466 11040,11459 11031,11445 11031,11445 11021,11430 11017,11424 11012,11417 11003,11403 10993,11388 10989,11381 10984,11375 10975,11361 10974,11360 10965,11346 10960,11338 10957,11332 10951,11318 10946,11306 10945,11304 10939,11290 10934,11277 10932,11273 10928,11262 10922,11248 10918,11239 10916,11234 10910,11220 10904,11206 10904,11205 10898,11193 10892,11178 10890,11172 10886,11164 10880,11150 10875,11138 10875,11136 10867,11122 10861,11112 10860,11108 10852,11094 10847,11085 10845,11080 10837,11066 10833,11059 10830,11052 10822,11038 10819,11032 10815,11024 10807,11010 10805,11006 10800,10996 10792,10982 10791,10980 10784,10968 10776,10956 10775,10954 10767,10940 10762,10933 10758,10926 10750,10912 10748,10910 10741,10898 10734,10887 10732,10884 10724,10870 10720,10864 10715,10856 10707,10842 10706,10840 10698,10828 10692,10819 10688,10814 10679,10800 10677,10798 10669,10786 10663,10777 10660,10772 10651,10758 10649,10756 10641,10744 10635,10735 10632,10730 10623,10716 10621,10714 10610,10702 10607,10699 10596,10688 10592,10685 10581,10674 10578,10671 10567,10660 10564,10657 10553,10646 10550,10643 10539,10632 10536,10629 10527,10618 10522,10610 10518,10604 10508,10590 10508,10590 10498,10576 10493,10570 10489,10563 10479,10550 10479,10549 10469,10535 10465,10530 10459,10521 10451,10509 10450,10507 10440,10493 10437,10489 10430,10479 10423,10469 10420,10465 10410,10451 10409,10450 10400,10437 10394,10430 10390,10423 10380,10410 10380,10409 10370,10395 10366,10390 10357,10381 10352,10377 10341,10367 10338,10365 10324,10353 10324,10353 10310,10341 10308,10339 10295,10329 10291,10325 10281,10317 10275,10311 10267,10303 10262,10297 10253,10287 10249,10283 10239,10272 10236,10269 10225,10257 10223,10255 10211,10242 10210,10241 10198,10227 10196,10226 10182,10218 10168,10213 10168,10213 10154,10208 10140,10203 10129,10199 10126,10198 10111,10193 10101,10185 10097,10181 10089,10171 10083,10165 10076,10157 10069,10150 10063,10143 10055,10135 10050,10129 10041,10119 10037,10115 10027,10104 10025,10101 10013,10094 10000,10087 9998,10086 9984,10079 9974,10073 9970,10071 9956,10063 9948,10059 9942,10056 9928,10049 9919,10045 9914,10043 9899,10037 9887,10031 9885,10030 9871,10024 9857,10018 9855,10017 9843,10011 9829,10003 9829,10003 9815,9995 9805,9989 9800,9987 9786,9978 9780,9975 9772,9970 9758,9966 9744,9966 9730,9965 9715,9964 9701,9964 9687,9963 9679,9961 9673,9956 9663,9947 9659,9944 9647,9933 9645,9931 9631,9919 9631,9919 9616,9906 9615,9905 9602,9893 9599,9891 9588,9886 9574,9883 9560,9880 9548,9877 9546,9877 9532,9873 9517,9870 9504,9863 9503,9863 9489,9851 9487,9849 9475,9838 9471,9835 9461,9826 9455,9821 9447,9814 9439,9807 9433,9801 9423,9793 9419,9788 9410,9779 9404,9773 9396,9765 9390,9759 9383,9751 9376,9744 9369,9737 9362,9729 9356,9723 9348,9715 9343,9709 9334,9700 9328,9695 9319,9687 9313,9681 9305,9674 9297,9667 9291,9661 9282,9653 9277,9649 9267,9639 9263,9636 9252,9625 9249,9622 9239,9611 9235,9606 9227,9597 9220,9590 9215,9583 9206,9574 9202,9569 9192,9558 9190,9555 9178,9542 9177,9541 9164,9528 9163,9527 9150,9517 9143,9513 9136,9507 9124,9499 9121,9498 9107,9488 9104,9485 9093,9478 9084,9471 9079,9470 9065,9469 9051,9468 9037,9468 9022,9467 9008,9466 8994,9463 8983,9457 8980,9455 8966,9447 8959,9443 8952,9439 8938,9431 8934,9429 8923,9423 8912,9415 8909,9412 8903,9401 8895,9388 8894,9387 8886,9373 8881,9364 8878,9359 8869,9345 8867,9341 8861,9331 8853,9317 8853,9317 8844,9303 8839,9294 8836,9289 8827,9275 8824,9269 8821,9261 8814,9247 8810,9239 8808,9233 8801,9219 8796,9208 8795,9205 8788,9191 8782,9178 8782,9177 8775,9163 8769,9149 8768,9148 8762,9135 8755,9121 8754,9117 8749,9107 8742,9093 8740,9086 8737,9079 8731,9065 8726,9051 8725,9049 8721,9037 8715,9023 8711,9013 8710,9009 8704,8995 8699,8981 8697,8976 8693,8967 8688,8953 8683,8940 8683,8939 8677,8925 8672,8911 8669,8903 8666,8897 8661,8883 8655,8869 8655,8868 8647,8855 8641,8842 8640,8841 8632,8827 8626,8817 8624,8813 8617,8799 8612,8791 8609,8785 8601,8771 8598,8765 8593,8757 8586,8743 8584,8740 8578,8729 8570,8717 8556,8716 8543,8715 8542,8715 8527,8714 8513,8713 8499,8712 8485,8712 8471,8713 8461,8715 8457,8715 8442,8717 8428,8719 8414,8721 8400,8722 8392,8715 8386,8708 8379,8701 8372,8694 8365,8687 8358,8679 8351,8673 8344,8665 8337,8659 8329,8651 8323,8645 8315,8634 8314,8631 8308,8617 8304,8603 8301,8596 8299,8589 8294,8575 8289,8561 8287,8556 8284,8547 8279,8533 8274,8519 8273,8516 8269,8505 8264,8491 8259,8477 8259,8476 8254,8463 8249,8449 8244,8436 8244,8435 8239,8421 8234,8407 8230,8396 8229,8393 8225,8379 8220,8365 8216,8352 8216,8351 8211,8337 8207,8323 8202,8309 8198,8295 8193,8281 8188,8266 8188,8265 8184,8253 8179,8239 8175,8225 8174,8221 8170,8211 8166,8197 8161,8183 8160,8177 8157,8169 8152,8155 8148,8141 8145,8134 8142,8127 8135,8113 8131,8105 8128,8099 8121,8085 8117,8078 8114,8071 8106,8057 8103,8050 8099,8043 8092,8029 8089,8022 8085,8015 8078,8001 8075,7995 8071,7987 8063,7973 8061,7966 8047,7959 8046,7958 8032,7951 8021,7945 8018,7943 8004,7935 7995,7931 7990,7928 7976,7922 7962,7928 7959,7931 7947,7939 7939,7945 7933,7949 7919,7959 7919,7959 7905,7969 7899,7973 7891,7979 7877,7986 7875,7987 7862,7993 7848,7999 7845,8001 7834,8006 7820,8013 7816,8015 7806,8018 7800,8015 7792,8003 7790,8001 7779,7986 7778,7984 7769,7973 7764,7966 7758,7959 7749,7947 7748,7945 7737,7931 7735,7928 7726,7917 7721,7910 7717,7903 7711,7889 7707,7879 7705,7875 7699,7860 7693,7847 7693,7846 7686,7833 7680,7818 7679,7815 7674,7805 7668,7791 7665,7783 7662,7777 7655,7763 7650,7751 7649,7749 7643,7734 7637,7721 7636,7719 7630,7707 7622,7694 7621,7692 7613,7679 7608,7670 7605,7664 7596,7650 7594,7646 7588,7637 7580,7622 7571,7608 7566,7598 7563,7594 7554,7580 7551,7574 7537,7577 7532,7581 7523,7586 7509,7594 7507,7595 7495,7602 7483,7609 7481,7610 7466,7618 7462,7623 7457,7637 7452,7647 7451,7651 7445,7665 7439,7679 7438,7681 7433,7693 7428,7707 7424,7715 7422,7721 7416,7735 7410,7749 7410,7749 7404,7763 7399,7777 7396,7783 7393,7791 7387,7805 7382,7818 7381,7819 7374,7833 7367,7844 7366,7847 7358,7861 7353,7869 7350,7875 7342,7889 7339,7894 7334,7903 7326,7917 7325,7918 7318,7931 7311,7943 7310,7945 7302,7959 7297,7968 7294,7973 7283,7982 7276,7987 7268,7993 7258,8001 7254,8003 7240,8014 7239,8015 7226,8025 7221,8029 7212,8036 7198,8037 7184,8036 7169,8035 7155,8034 7141,8033 7127,8030 7113,8041 7112,8043 7099,8057 7099,8057 7085,8071 7085,8071 7072,8085 7070,8086 7059,8099 7056,8101 7045,8113 7042,8116 7036,8127 7032,8141 7028,8152 7027,8155 7023,8169 7018,8183 7014,8197 7014,8197 7010,8211 7005,8225 7001,8239 7000,8242 6996,8253 6992,8267 6988,8281 6986,8287 6983,8295 6979,8309 6974,8323 6971,8332 6970,8337 6966,8351 6961,8365 6957,8377 6957,8379 6952,8393 6949,8407 6945,8421 6943,8428 6941,8435 6938,8449 6934,8463 6930,8477 6929,8482 6927,8491 6923,8505 6919,8519 6916,8533 6915,8536 6912,8547 6908,8561 6905,8575 6901,8589 6901,8590 6897,8603 6894,8617 6890,8631 6887,8644 6886,8645 6883,8659 6879,8673 6875,8687 6872,8698 6872,8701 6868,8715 6864,8729 6859,8743 6858,8746 6855,8757 6850,8771 6846,8785 6844,8790 6841,8799 6837,8813 6832,8827 6830,8834 6828,8841 6823,8855 6819,8869 6816,8878 6814,8883 6810,8897 6805,8911 6802,8922 6801,8925 6796,8939 6792,8953 6788,8966 6787,8967 6783,8981 6778,8995 6773,9007 6773,9009 6768,9023 6763,9037 6759,9046 6758,9051 6753,9065 6748,9079 6745,9086 6743,9093 6738,9107 6733,9121 6731,9125 6728,9135 6723,9149 6718,9163 6717,9165 6713,9177 6708,9191 6703,9204 6702,9205 6697,9219 6693,9233 6689,9245 6688,9247 6683,9261 6678,9275 6674,9286 6674,9289 6669,9303 6664,9317 6660,9328 6659,9331 6654,9345 6650,9359 6646,9369 6645,9373 6640,9387 6635,9401 6632,9411 6631,9415 6626,9429 6621,9443 6618,9453 6616,9457 6612,9471 6608,9485 6604,9499 6604,9502 6601,9513 6597,9527 6594,9541 6590,9555 6590,9557 6586,9569 6583,9583 6579,9597 6576,9611 6575,9611 6572,9625 6568,9639 6565,9653 6561,9666 6561,9667 6557,9681 6554,9695 6550,9709 6547,9721 6547,9723 6543,9737 6539,9751 6536,9765 6533,9776 6532,9779 6529,9793 6525,9807 6522,9821 6520,9835 6519,9839 6517,9849 6514,9863 6511,9877 6508,9891 6505,9905 6505,9907 6502,9919 6499,9933 6496,9947 6493,9961 6491,9975 6491,9975 6488,9989 6485,10003 6482,10017 6479,10031 6476,10044 6476,10045 6473,10059 6470,10073 6467,10087 6464,10101 6462,10112 6462,10115 6459,10129 6456,10143 6453,10157 6450,10171 6448,10180 6447,10185 6444,10199 6441,10213 6438,10227 6435,10241 6434,10245 6432,10255 6428,10269 6425,10283 6422,10297 6420,10306 6419,10311 6415,10325 6412,10339 6409,10353 6406,10367 6406,10368 6403,10381 6399,10395 6396,10409 6393,10423 6392,10429 6390,10437 6387,10451 6383,10465 6380,10479 6377,10491 6377,10493 6374,10507 6370,10521 6367,10535 6364,10549 6363,10552 6361,10563 6357,10576 6354,10590 6350,10604 6349,10608 6346,10618 6343,10632 6339,10646 6335,10661 6335,10661 6331,10674 6328,10688 6324,10702 6321,10714 6320,10716 6316,10730 6313,10744 6309,10758 6307,10766 6305,10772 6301,10786 6298,10801 6294,10814 6293,10819 6290,10828 6286,10842 6282,10857 6279,10871 6278,10872 6275,10884 6271,10899 6267,10912 6264,10924 6264,10926 6260,10941 6256,10955 6252,10968 6250,10975 6248,10983 6244,10996 6240,11011 6236,11025 6236,11026 6233,11039 6229,11052 6225,11067 6222,11078 6221,11081 6217,11095 6213,11109 6209,11123 6208,11129 6206,11137 6202,11151 6198,11165 6194,11179 6194,11180 6190,11193 6186,11207 6183,11221 6180,11235 6179,11236 6177,11249 6173,11263 6170,11277 6167,11291 6165,11298 6164,11305 6160,11319 6157,11333 6154,11347 6151,11359 6151,11361 6148,11375 6144,11389 6141,11403 6138,11417 6137,11421 6135,11431 6131,11445 6128,11459 6125,11473 6123,11482 6122,11487 6119,11501 6115,11515 6112,11529 6109,11543 6109,11544 6106,11557 6102,11571 6099,11585 6096,11599 6095,11607 6093,11613 6090,11627 6087,11641 6084,11655 6081,11669 6080,11674 6079,11683 6076,11697 6073,11711 6070,11725 6067,11739 6066,11741 6064,11753 6061,11767 6058,11781 6055,11795 6052,11807 6052,11809 6049,11823 6046,11837 6043,11851 6040,11865 6038,11874 6037,11879 6034,11893 6031,11907 6028,11921 6025,11935 6024,11940 6022,11949 6019,11963 6016,11977 6013,11991 6010,12005 6010,12005 6007,12019 6003,12033 6000,12047 5997,12061 5996,12068 5994,12075 5991,12089 5988,12103 5985,12117 5981,12131 5981,12131 5978,12145 5975,12159 5972,12173 5969,12187 5967,12194 5966,12201 5962,12215 5959,12229 5956,12243 5953,12257 5953,12257 5950,12271 5947,12285 5944,12299 5940,12313 5939,12319 5937,12327 5934,12341 5931,12355 5927,12369 5925,12376 5923,12383 5918,12397 5914,12411 5911,12423 5910,12425 5906,12439 5902,12453 5897,12467 5896,12470 5893,12481 5889,12495 5885,12509 5882,12517 5880,12523 5876,12537 5872,12551 5868,12564 5868,12565 5864,12579 5859,12593 5855,12607 5854,12611 5851,12621 5847,12635 5843,12649 5840,12657 5838,12663 5834,12677 5830,12691 5826,12703 5825,12705 5821,12719 5817,12733 5812,12747 5812,12749 5808,12761 5804,12775 5799,12789 5797,12795 5795,12803 5791,12817 5786,12831 5783,12841 5782,12845 5778,12859 5773,12873 5769,12887 5765,12901 5761,12915 5757,12929 5755,12935 5753,12943 5749,12957 5745,12971 5741,12985 5741,12985 5737,12999 5733,13013 5729,13027 5727,13036 5725,13041 5722,13055 5718,13069 5714,13083 5713,13087 5710,13097 5706,13111 5702,13125 5698,13138 5698,13139 5694,13153 5690,13167 5686,13181 5684,13188 5682,13195 5679,13209 5675,13223 5671,13237 5670,13239 5667,13251 5663,13265 5658,13279 5656,13288 5654,13293 5650,13307 5646,13321 5642,13335 5642,13337 5638,13349 5634,13363 5630,13377 5628,13386 5626,13391 5622,13405 5618,13419 5614,13433 5614,13435 5610,13447 5606,13461 5602,13475 5599,13484 5598,13489 5594,13503 5590,13517 5585,13529 5584,13531 5579,13545 5574,13559 5571,13568 5569,13573 5564,13587 5559,13601 5557,13607 5554,13615 5549,13629 5544,13643 5543,13647 5539,13657 5534,13671 5529,13685 5529,13686 5524,13699 5519,13713 5515,13725 5514,13727 5509,13741 5504,13755 5500,13764 5498,13769 5493,13783 5488,13797 5486,13802 5483,13811 5478,13825 5472,13839 5472,13840 5467,13853 5462,13867 5458,13877 5457,13881 5451,13895 5446,13909 5444,13915 5441,13923 5436,13937 5430,13951 5430,13953 5425,13965 5420,13979 5416,13988 5413,13993 5407,14007 5401,14020 5401,14021 5394,14035 5388,14049 5387,14051 5382,14063 5376,14077 5373,14083 5369,14091 5363,14105 5359,14114 5357,14119 5350,14133 5345,14146 5344,14147 5338,14161 5331,14175 5331,14176 5324,14189 5317,14203 5317,14205 5310,14217 5304,14231 5302,14234 5297,14245 5290,14259 5288,14263 5283,14273 5276,14287 5274,14291 5269,14301 5262,14315 5260,14320 5255,14329 5249,14343 5246,14350 5243,14357 5236,14371 5232,14381 5230,14385 5223,14399 5218,14413 5217,14413 5211,14427 5204,14441 5203,14444 5198,14455 5192,14469 5189,14475 5185,14483 5179,14498 5175,14506 5173,14511 5165,14525 5161,14532 5156,14539 5147,14552 5146,14553 5136,14568 5133,14572 5126,14582 5119,14591 5116,14595 5106,14610 5104,14611 5096,14623 5090,14631 5086,14637 5076,14649 5074,14652 5062,14665 5062,14666 5049,14680 5048,14681 5037,14694 5034,14697 5025,14707 5020,14713 5012,14722 5005,14729 5000,14735 4991,14744 4985,14750 4977,14756 4968,14764 4963,14768 4952,14778 4949,14780 4935,14792 4935,14792 4920,14804 4919,14806 4906,14816 4901,14820 4892,14826 4883,14834 4878,14837 4864,14848 4864,14848 4850,14858 4846,14862 4836,14869 4827,14876 4822,14878 4807,14881 4793,14885 4779,14888 4774,14890 4765,14892 4751,14895 4737,14897 4722,14894 4708,14890 4706,14889 4694,14887 4680,14883 4666,14879 4652,14876 4648,14875 4638,14874 4623,14871 4609,14869 4595,14866 4581,14864 4571,14861 4567,14861 4553,14852 4544,14847 4539,14844 4524,14836 4520,14833 4510,14828 4496,14820 4495,14819 4482,14811 4473,14805 4468,14802 4454,14791 4440,14781 4434,14777 4425,14771 4414,14763 4411,14761 4397,14750 4396,14749 4385,14735 4383,14733 4373,14721 4369,14716 4362,14707 4355,14699 4350,14693 4341,14681 4339,14679 4328,14665 4326,14664 4316,14651 4312,14646 4305,14637 4298,14628 4295,14623 4284,14609 4284,14609 4273,14595 4270,14591 4263,14581 4256,14572 4252,14567 4242,14554 4241,14553 4231,14539 4227,14535 4221,14525 4213,14515 4211,14511 4202,14497 4199,14494 4192,14483 4185,14473 4183,14469 4173,14455 4171,14452 4164,14441 4157,14431 4154,14427 4145,14413 4143,14410 4136,14399 4128,14386 4128,14385 4119,14371 4114,14362 4111,14357 4103,14343 4100,14339 4095,14329 4086,14315 4086,14315 4078,14301 4072,14291 4070,14287 4062,14273 4058,14267 4054,14259 4047,14245 4044,14239 4039,14231 4032,14217 4029,14212 4025,14203 4018,14189 4015,14184 4011,14175 4004,14161 4001,14156 3997,14147 3990,14133 3987,14128 3982,14119 3975,14105 3973,14101 3968,14091 3961,14077 3959,14073 3954,14063 3947,14049 3945,14045 3940,14035 3933,14021 3930,14017 3925,14007 3918,13993 3916,13989 3911,13979 3904,13965 3902,13961 3897,13951 3890,13937 3888,13933 3883,13923 3878,13909 3874,13900 3872,13895 3866,13881 3861,13867 3860,13865 3855,13853 3849,13839 3846,13829 3844,13825 3838,13811 3833,13797 3831,13794 3827,13783 3821,13769 3817,13759 3816,13755 3810,13741 3805,13727 3803,13723 3799,13713 3793,13699 3789,13689 3787,13685 3782,13671 3776,13657 3775,13654 3770,13643 3764,13629 3761,13620 3759,13615 3753,13601 3747,13587 3747,13586 3741,13573 3736,13559 3732,13551 3730,13545 3724,13531 3718,13517 3718,13517 3713,13503 3708,13489 3704,13479 3703,13475 3697,13461 3692,13447 3690,13440 3687,13433 3682,13419 3677,13405 3676,13401 3672,13391 3667,13377 3662,13363 3662,13362 3657,13349 3652,13335 3648,13323 3647,13321 3642,13307 3637,13293 3633,13284 3631,13279 3627,13265 3622,13251 3619,13244 3617,13237 3612,13223 3607,13209 3605,13203 3602,13195 3598,13181 3593,13167 3591,13162 3588,13153 3583,13139 3578,13125 3577,13121 3573,13111 3569,13097 3564,13083 3563,13080 3559,13069 3554,13055 3549,13041 3548,13038 3545,13027 3540,13013 3535,12999 3534,12996 3531,12985 3526,12971 3522,12957 3520,12952 3517,12943 3513,12929 3508,12915 3506,12908 3504,12901 3499,12887 3495,12873 3492,12864 3490,12859 3486,12845 3481,12831 3478,12821 3477,12817 3472,12803 3468,12789 3464,12777 3463,12775 3459,12761 3453,12747 3450,12737 3448,12733 3443,12719 3437,12705 3435,12700 3432,12691 3427,12677 3421,12663 3421,12663 3416,12649 3410,12635 3407,12626 3405,12621 3400,12607 3394,12593 3393,12589 3389,12579 3383,12565 3379,12551 3379,12551 3376,12551 3366,12565 3365,12576 3364,12579 3362,12593 3360,12607 3358,12621 3355,12635 3353,12649 3351,12663"/><text class="SVGTextShape"><tspan class="TextParagraph" font-family="Liberation Sans, sans-serif" font-size="494" font-weight="400"><tspan x="2914" y="19254" class="TextPosition"><tspan fill="#000" stroke="none" style="white-space:pre">250</tspan></tspan></tspan></text><text class="SVGTextShape"><tspan class="TextParagraph" font-family="Liberation Sans, sans-serif" font-size="494" font-weight="400"><tspan x="4637" y="19254" class="TextPosition"><tspan fill="#000" stroke="none" style="white-space:pre">275</tspan></tspan></tspan></text><text class="SVGTextShape"><tspan class="TextParagraph" font-family="Liberation Sans, sans-serif" font-size="494" font-weight="400"><tspan x="6360" y="19254" class="TextPosition"><tspan fill="#000" stroke="none" style="white-space:pre">300</tspan></tspan></tspan></text><text class="SVGTextShape"><tspan class="TextParagraph" font-family="Liberation Sans, sans-serif" font-size="494" font-weight="400"><tspan x="8083" y="19254" class="TextPosition"><tspan fill="#000" stroke="none" style="white-space:pre">325</tspan></tspan></tspan></text><text class="SVGTextShape"><tspan class="TextParagraph" font-family="Liberation Sans, sans-serif" font-size="494" font-weight="400"><tspan x="9807" y="19254" class="TextPosition"><tspan fill="#000" stroke="none" style="white-space:pre">350</tspan></tspan></tspan></text><text class="SVGTextShape"><tspan class="TextParagraph" font-family="Liberation Sans, sans-serif" font-size="494" font-weight="400"><tspan x="11530" y="19254" class="TextPosition"><tspan fill="#000" stroke="none" style="white-space:pre">375</tspan></tspan></tspan></text><text class="SVGTextShape"><tspan class="TextParagraph" font-family="Liberation Sans, sans-serif" font-size="494" font-weight="400"><tspan x="13253" y="19254" class="TextPosition"><tspan fill="#000" stroke="none" style="white-space:pre">400</tspan></tspan></tspan></text><text class="SVGTextShape"><tspan class="TextParagraph" font-family="Liberation Sans, sans-serif" font-size="494" font-weight="400"><tspan x="14976" y="19254" class="TextPosition"><tspan fill="#000" stroke="none" style="white-space:pre">425</tspan></tspan></tspan></text><text class="SVGTextShape"><tspan class="TextParagraph" font-family="Liberation Sans, sans-serif" font-size="494" font-weight="400"><tspan x="16700" y="19254" class="TextPosition"><tspan fill="#000" stroke="none" style="white-space:pre">450</tspan></tspan></tspan></text><text class="SVGTextShape"><tspan class="TextParagraph" font-family="Liberation Sans, sans-serif" font-size="494" font-weight="400"><tspan x="18422" y="19254" class="TextPosition"><tspan fill="#000" stroke="none" style="white-space:pre">475</tspan></tspan></tspan></text><text class="SVGTextShape"><tspan class="TextParagraph" font-family="Liberation Sans, sans-serif" font-size="494" font-weight="400"><tspan x="20145" y="19254" class="TextPosition"><tspan fill="#000" stroke="none" style="white-space:pre">500</tspan></tspan></tspan></text><text class="SVGTextShape"><tspan class="TextParagraph" font-family="Liberation Sans, sans-serif" font-size="494" font-weight="400"><tspan x="21869" y="19254" class="TextPosition"><tspan fill="#000" stroke="none" style="white-space:pre">525</tspan></tspan></tspan></text><text class="SVGTextShape"><tspan class="TextParagraph" font-family="Liberation Sans, sans-serif" font-size="494" font-weight="400"><tspan x="23592" y="19254" class="TextPosition"><tspan fill="#000" stroke="none" style="white-space:pre">550</tspan></tspan></tspan></text><text class="SVGTextShape"><tspan class="TextParagraph" font-family="Liberation Sans, sans-serif" font-size="494" font-weight="400"><tspan x="25315" y="19254" class="TextPosition"><tspan fill="#000" stroke="none" style="white-space:pre">575</tspan></tspan></tspan></text><text class="SVGTextShape"><tspan class="TextParagraph" font-family="Liberation Sans, sans-serif" font-size="494" font-weight="400"><tspan x="27038" y="19254" class="TextPosition"><tspan fill="#000" stroke="none" style="white-space:pre">600</tspan></tspan></tspan></text><text class="SVGTextShape"><tspan class="TextParagraph" font-family="Liberation Sans, sans-serif" font-size="494" font-weight="400"><tspan x="28762" y="19254" class="TextPosition"><tspan fill="#000" stroke="none" style="white-space:pre">625</tspan></tspan></tspan></text><text class="SVGTextShape"><tspan class="TextParagraph" font-family="Liberation Sans, sans-serif" font-size="494" font-weight="400"><tspan x="30485" y="19254" class="TextPosition"><tspan fill="#000" stroke="none" style="white-space:pre">650</tspan></tspan></tspan></text><text class="SVGTextShape"><tspan class="TextParagraph" font-family="Liberation Sans, sans-serif" font-size="494" font-weight="400"><tspan x="32208" y="19254" class="TextPosition"><tspan fill="#000" stroke="none" style="white-space:pre">675</tspan></tspan></tspan></text><text class="SVGTextShape"><tspan class="TextParagraph" font-family="Liberation Sans, sans-serif" font-size="494" font-weight="400"><tspan x="33932" y="19254" class="TextPosition"><tspan fill="#000" stroke="none" style="white-space:pre">700</tspan></tspan></tspan></text><text class="SVGTextShape"><tspan class="TextParagraph" font-family="Liberation Sans, sans-serif" font-size="494" font-weight="400"><tspan x="2810" y="18726" class="TextPosition"><tspan fill="#000" stroke="none" style="white-space:pre">0</tspan></tspan></tspan></text><text class="SVGTextShape"><tspan class="TextParagraph" font-family="Liberation Sans, sans-serif" font-size="494" font-weight="400"><tspan x="2096" y="17493" class="TextPosition"><tspan fill="#000" stroke="none" style="white-space:pre">0.05</tspan></tspan></tspan></text><text class="SVGTextShape"><tspan class="TextParagraph" font-family="Liberation Sans, sans-serif" font-size="494" font-weight="400"><tspan x="2387" y="16261" class="TextPosition"><tspan fill="#000" stroke="none" style="white-space:pre">0.1</tspan></tspan></tspan></text><text class="SVGTextShape"><tspan class="TextParagraph" font-family="Liberation Sans, sans-serif" font-size="494" font-weight="400"><tspan x="2096" y="15029" class="TextPosition"><tspan fill="#000" stroke="none" style="white-space:pre">0.15</tspan></tspan></tspan></text><text class="SVGTextShape"><tspan class="TextParagraph" font-family="Liberation Sans, sans-serif" font-size="494" font-weight="400"><tspan x="2387" y="13796" class="TextPosition"><tspan fill="#000" stroke="none" style="white-space:pre">0.2</tspan></tspan></tspan></text><text class="SVGTextShape"><tspan class="TextParagraph" font-family="Liberation Sans, sans-serif" font-size="494" font-weight="400"><tspan x="2096" y="12564" class="TextPosition"><tspan fill="#000" stroke="none" style="white-space:pre">0.25</tspan></tspan></tspan></text><text class="SVGTextShape"><tspan class="TextParagraph" font-family="Liberation Sans, sans-serif" font-size="494" font-weight="400"><tspan x="2387" y="11332" class="TextPosition"><tspan fill="#000" stroke="none" style="white-space:pre">0.3</tspan></tspan></tspan></text><text class="SVGTextShape"><tspan class="TextParagraph" font-family="Liberation Sans, sans-serif" font-size="494" font-weight="400"><tspan x="2096" y="10100" class="TextPosition"><tspan fill="#000" stroke="none" style="white-space:pre">0.35</tspan></tspan></tspan></text><text class="SVGTextShape"><tspan class="TextParagraph" font-family="Liberation Sans, sans-serif" font-size="494" font-weight="400"><tspan x="2387" y="8868" class="TextPosition"><tspan fill="#000" stroke="none" style="white-space:pre">0.4</tspan></tspan></tspan></text><text class="SVGTextShape"><tspan class="TextParagraph" font-family="Liberation Sans, sans-serif" font-size="494" font-weight="400"><tspan x="2096" y="7636" class="TextPosition"><tspan fill="#000" stroke="none" style="white-space:pre">0.45</tspan></tspan></tspan></text><text class="SVGTextShape"><tspan class="TextParagraph" font-family="Liberation Sans, sans-serif" font-size="494" font-weight="400"><tspan x="2387" y="6403" class="TextPosition"><tspan fill="#000" stroke="none" style="white-space:pre">0.5</tspan></tspan></tspan></text><text class="SVGTextShape"><tspan class="TextParagraph" font-family="Liberation Sans, sans-serif" font-size="494" font-weight="400"><tspan x="2096" y="5171" class="TextPosition"><tspan fill="#000" stroke="none" style="white-space:pre">0.55</tspan></tspan></tspan></text><text class="SVGTextShape"><tspan class="TextParagraph" font-family="Liberation Sans, sans-serif" font-size="494" font-weight="400"><tspan x="2387" y="3939" class="TextPosition"><tspan fill="#000" stroke="none" style="white-space:pre">0.6</tspan></tspan></tspan></text><text class="SVGTextShape"><tspan class="TextParagraph" font-family="Liberation Sans, sans-serif" font-size="635" font-weight="400"><tspan x="11693" y="1313" class="TextPosition"><tspan fill="#000" stroke="none" style="white-space:pre">Optical Absorption Spectrometry of KMnO4</tspan></tspan></tspan><tspan class="TextParagraph" font-family="Liberation Sans, sans-serif" font-size="635" font-weight="400"><tspan x="15556" y="2027" class="TextPosition"><tspan fill="#000" stroke="none" style="white-space:pre">11 August 2023</tspan></tspan></tspan><tspan class="TextParagraph" font-family="Liberation Sans, sans-serif" font-size="635" font-weight="400"><tspan x="16919" y="2741" class="TextPosition"><tspan fill="#000" stroke="none" style="white-space:pre">Run 1</tspan></tspan></tspan></text><text class="SVGTextShape"><tspan class="TextParagraph" font-family="Liberation Sans, sans-serif" font-size="564" font-weight="400"><tspan x="16069" y="20457" class="TextPosition"><tspan fill="#000" stroke="none" style="white-space:pre">Wavelength  (nm)</tspan></tspan></tspan></text><text class="SVGTextShape" transform="rotate(-90 -5386 -4042496)"><tspan class="TextParagraph" font-family="Liberation Sans, sans-serif" font-size="564" font-weight="400"><tspan x="1110" y="12945" class="TextPosition"><tspan fill="#000" stroke="none" style="white-space:pre">Absorbance</tspan></tspan></tspan></text></svg>